<svg width="20" height="16" viewBox="0 0 20 16" fill="none" xmlns="http://www.w3.org/2000/svg">
<path d="M20 8C20 7.45119 19.6188 7.06069 19.0683 7.06069L5.1244 7.06069L2.86924 7.13456L6.34198 3.97889L8.7136 1.57256C8.88301 1.40369 8.96771 1.16095 8.96771 0.907652C8.96771 0.379948 8.56538 0 8.04659 0C7.79248 0 7.57014 0.0844326 7.35839 0.284961L0.317628 7.29288C0.105876 7.4934 0 7.73615 0 8C0 8.26385 0.105876 8.5066 0.317628 8.70712L7.35839 15.7045C7.57014 15.905 7.79248 16 8.04659 16C8.56538 16 8.96771 15.6201 8.96771 15.0923C8.96771 14.8391 8.88301 14.5858 8.7136 14.4274L6.34198 12.0211L2.85866 8.85488L5.1244 8.93931H19.0683C19.6188 8.93931 20 8.54881 20 8Z" fill="#0C4DCE"/>
</svg>
