<svg xmlns="http://www.w3.org/2000/svg" data-name="Layer 1" viewBox="0 0 66 66" id="excel-file"><path d="M59.52,17.26l-16-16A1,1,0,0,0,42.85,1H17.58a6.33,6.33,0,0,0-6.33,6.32V27.53h-.79A4.27,4.27,0,0,0,6.19,31.8V51.17a4.25,4.25,0,0,0,4.25,4.24h.82v3.27A6.33,6.33,0,0,0,17.58,65H53.5a6.33,6.33,0,0,0,6.32-6.32V18A1,1,0,0,0,59.52,17.26ZM11.24,34.08h-.78a2.28,2.28,0,0,1,0-4.55h.78Zm46.58,24.6A4.33,4.33,0,0,1,53.5,63H17.58a4.33,4.33,0,0,1-4.33-4.32V55.41H44.83a1,1,0,0,0,1-1V35.07a1,1,0,0,0-1-1H13.25V7.32A4.33,4.33,0,0,1,17.58,3H41.85v9.64A6.33,6.33,0,0,0,48.17,19h9.65ZM15.76,40.11h2.17l1.85,3,1.81-3h2.15l-2.86,4.47L24,49.32H21.78l-2-3.19-2,3.19H15.46l3.15-4.81Zm15.75,7.66v1.55H25V40.19h1.86v7.58Zm6.28-1.68a1.41,1.41,0,0,0-.66-.4c-.22-.08-.72-.21-1.49-.4a5.06,5.06,0,0,1-2.1-.92,2.4,2.4,0,0,1-.45-3.16,2.57,2.57,0,0,1,1.15-.94A4.65,4.65,0,0,1,36.05,40a3.91,3.91,0,0,1,2.61.76,2.72,2.72,0,0,1,.92,2l-1.86.08a1.6,1.6,0,0,0-.51-1A1.91,1.91,0,0,0,36,41.49a2.08,2.08,0,0,0-1.27.34.68.68,0,0,0-.29.57.71.71,0,0,0,.28.56,4.92,4.92,0,0,0,1.7.61,9.16,9.16,0,0,1,2,.66,2.64,2.64,0,0,1,1,.94,2.75,2.75,0,0,1,.36,1.46,2.67,2.67,0,0,1-.44,1.49,2.56,2.56,0,0,1-1.24,1,5.06,5.06,0,0,1-2,.34,4,4,0,0,1-2.68-.81,3.48,3.48,0,0,1-1.12-2.35l1.81-.17a2.21,2.21,0,0,0,.66,1.33,2,2,0,0,0,1.35.43,2.07,2.07,0,0,0,1.35-.38,1.14,1.14,0,0,0,.46-.89A.81.81,0,0,0,37.79,46.09Z"></path></svg>