<svg xmlns="http://www.w3.org/2000/svg" xmlns:xlink="http://www.w3.org/1999/xlink" version="1.1" width="1000" height="1000" viewBox="0 0 1000 1000" xml:space="preserve">
<desc>Created with Fabric.js 3.5.0</desc>
<defs>
</defs>
<rect x="0" y="0" width="100%" height="100%" fill="rgba(255,255,255,0)"/>
<g transform="matrix(7.3126 0 0 7.3126 499.9995 499.9994)" id="669108">
<path style="stroke: none; stroke-width: 1; stroke-dasharray: none; stroke-linecap: butt; stroke-dashoffset: 0; stroke-linejoin: miter; stroke-miterlimit: 10; is-custom-font: none; font-file-url: none; fill: rgb(151,215,0); fill-rule: nonzero; opacity: 1;" vector-effect="non-scaling-stroke" transform=" translate(-274.9999, -177.1591)" d="M 267.55202 124.12545 c 4.96525 -2.86669 9.93049 -2.86669 14.89573 0 l 34.75672 20.0668 c 4.96525 2.86669 7.44787 7.16671 7.44787 12.90008 v 40.1336 c 0 5.73337 -2.48262 10.0334 -7.44787 12.90008 l -34.75672 20.0668 c -4.96525 2.86669 -9.93049 2.86669 -14.89573 0 l -34.75672 -20.0668 c -4.96525 -2.86669 -7.44787 -7.16671 -7.44787 -12.90008 v -40.1336 c 0 -5.73337 2.48262 -10.0334 7.44787 -12.90008 z M 258.00359 215.68031 h 0.2009 c 0.67096 -0.06411 1.3548 -0.07268 2.00438 -0.2009 c 1.34632 -0.27357 2.70968 -0.51288 4.00037 -0.95733 c 2.41041 -0.82911 4.85941 -1.32919 7.40229 -1.30358 c 1.9446 0.01713 3.83797 0.33768 5.70133 0.9659 c 2.24378 0.75652 4.52605 1.42323 6.93223 1.42747 c 0.05987 0 0.11542 0.04707 0.1752 0.07268 h 2.19248 c 0.41036 -0.03418 0.81639 -0.08124 1.22233 -0.10261 c 7.42375 -0.3761 13.86014 -3.11987 19.27509 -8.19298 c 4.82524 -4.52173 7.86395 -10.06491 9.03066 -16.5783 c 0.31207 -1.75651 0.38899 -3.56008 0.47871 -5.34652 c 0.06378 -1.23947 -0.66247 -1.89337 -1.91466 -1.90194 c -1.65939 -0.00848 -3.31453 -0.00424 -4.97392 0 h -0.0094 c -0.78687 0.00349 -0.78471 -0.01663 -0.73981 -0.43588 c 0.00898 -0.08423 0.01962 -0.18418 0.02603 -0.30342 c 0.17096 -3.27378 0.07268 -6.53476 -0.3504 -9.78718 c -0.61549 -4.73968 -1.84631 -9.29991 -3.88928 -13.62507 c -2.00014 -4.23968 -4.62859 -8.01778 -8.29127 -11.00519 c -2.95748 -2.41474 -6.29961 -3.97467 -10.12478 -4.40632 c -0.02994 -0.00424 -0.05978 -0.02137 -0.15383 -0.05555 c 0.13246 -0.28205 0.26925 -0.55562 0.40171 -0.82911 c 1.30782 -2.73958 1.80357 -5.60734 1.33775 -8.6204 c -0.13246 -0.85477 -0.73515 -1.4232 -1.63261 -1.55142 c -3.97467 -0.56843 -7.58182 0.35046 -10.81286 2.70963 c -0.77356 0.56414 -1.46597 1.24369 -2.23097 1.90186 c -0.01704 -0.11112 -0.05131 -0.22651 -0.05131 -0.34191 c -0.00424 -0.8505 -0.00424 -1.69673 -0.00424 -2.54295 c 0 -1.27361 -0.46582 -1.82921 -1.72666 -2.06855 c -0.04698 -0.00855 -0.08548 -0.04273 -0.12822 -0.06838 h -0.09829 c -0.07268 0.02992 -0.14535 0.07265 -0.22227 0.08548 c -1.04281 0.17523 -1.56418 0.78212 -1.56418 1.84204 v 13.01394 c -0.81207 -0.11117 -1.47878 -0.4402 -2.11556 -0.85481 c -0.59836 -0.3889 -1.17535 -0.81207 -1.80357 -1.14542 c -2.16262 -1.1539 -4.51749 -1.51295 -6.92799 -1.55993 c -5.44056 -0.11109 -9.9623 2.06001 -13.83869 5.7227 c -4.03454 3.81652 -6.66297 8.5221 -8.50073 13.70622 c -1.54714 4.35934 -2.38054 8.86402 -2.62415 13.48404 c -0.3761 7.12024 0.5385 14.0439 3.12419 20.71113 c 1.748 4.50468 4.16701 8.59902 7.6374 12.0095 c 2.94891 2.90201 6.36805 4.98764 10.48807 5.7612 c 0.86328 0.1624 1.74794 0.19657 2.61988 0.29062 c 0.1624 0.01713 0.32047 0.05131 0.47863 0.08124 z M 276.82144 147.09762 c -1.13261 0.33344 -2.32069 0.47871 -3.55584 0.72658 c -0.10261 -1.63261 0.23499 -3.00454 0.7265 -4.33373 c 0.53001 -1.45733 1.31206 -2.79506 2.4105 -3.87635 c 1.59411 -1.56851 3.54303 -2.55577 5.73975 -3.00879 c 0.65391 -0.13249 1.33775 -0.16242 2.00871 -0.22651 c 0.41884 -0.04274 0.61117 0.16668 0.59412 0.58551 c -0.08548 2.03009 -0.67528 3.90635 -1.67535 5.67566 c -1.3933 2.47028 -3.66701 3.69695 -6.24839 4.45762 z M 264.37596 206.00422 c 1.22658 1.23947 2.51303 2.42763 3.62851 3.49605 c -1.607 0.44877 -3.41057 0.91892 -5.19277 1.46165 c -1.86344 0.56843 -3.74393 0.9787 -5.70133 0.83768 c -2.28228 -0.16664 -4.40208 -0.90603 -6.37661 -2.03865 c -1.82494 -1.04705 -3.39768 -2.43178 -4.79098 -3.99604 c -1.88049 -2.107 -3.3764 -4.47899 -4.58159 -7.03476 c -1.45738 -3.0857 -2.47028 -6.31674 -3.11564 -9.6632 c -0.46585 -2.41898 -0.71801 -4.85941 -0.8334 -7.32537 c -0.14532 -3.137 0.06838 -6.24415 0.51713 -9.34697 c 0.6368 -4.40632 1.90615 -8.62039 3.92764 -12.59074 c 1.20096 -2.36343 2.67975 -4.54311 4.51325 -6.48346 c 2.20952 -2.3335 4.74824 -4.13283 7.8553 -5.05599 c 2.19248 -0.65391 4.41488 -0.69232 6.66299 -0.34192 c 1.67535 0.26068 3.1755 0.89322 4.59008 1.82926 c 1.28645 0.85048 2.73953 1.38898 4.29523 1.49582 c 0.25204 0.01721 0.50423 0.03559 0.75652 0.05397 c 1.3183 0.09604 2.63967 0.19233 3.94898 0.117 c 2.93195 -0.16672 5.62017 -1.14966 7.91094 -3.01734 c 0.8292 -0.67528 1.67111 -0.78637 2.64125 -0.65391 c 0.842 0.11542 1.69672 0.1752 2.53016 0.32911 c 1.6198 0.29486 3.10282 0.95301 4.51317 1.79501 c 1.63261 0.9787 3.07721 2.18823 4.36366 3.58145 c 1.32062 1.4318 2.46172 3.00454 3.45755 4.68421 c 1.35048 2.2822 2.45315 4.68413 3.1883 7.23133 c 0.61109 2.10275 1.16671 4.23536 1.5685 6.38517 c 0.32055 1.70096 0.42732 3.44899 0.52993 5.17988 c 0.08631 1.42065 0.09105 2.84721 0.09529 4.27261 c 0.00091 0.26409 0.00175 0.52777 0.003 0.79194 c 0.003 0.32064 -0.03792 0.64343 -0.08191 0.9901 l -0.00017 0.001 c -0.02046 0.16065 -0.04141 0.32696 -0.05896 0.50049 h -0.60685 c -15.40303 0.00424 -30.80598 0.00848 -46.209 0.00848 c -0.89755 0 -1.63261 0.265 -1.97877 1.17103 c -0.07268 0.17953 -0.10685 0.38042 -0.11117 0.57275 c -0.08115 4.19261 0.76509 8.20155 2.41907 12.04801 c 0.98294 2.28652 2.21385 4.42769 3.71823 6.40646 c 0.61541 0.81207 1.28645 1.58563 2.00446 2.30789 z M 270.08444 160.29836 c 3.8586 -1.57199 8.00298 -1.71493 9.43212 -1.42914 c 0 0 -5.00194 -0.2858 -9.28927 1.71493 c 4.14447 8.71759 11.57578 2.57239 14.43406 -2.57239 c -1.10077 -0.46831 -2.14366 -0.97887 -3.13309 -1.46315 c -5.04801 -2.47087 -8.69556 -4.25631 -11.44382 3.74975 z M 257.93699 159.31451 v 1.1268 c 0.71461 4.57312 7.86013 4.14439 8.28886 0.71453 c 0.42873 -2.57239 -2.85828 -5.43059 -5.14479 -3.71566 c -2.42946 1.85779 0.2858 3.71566 0.2858 2.28652 c 0 -3.14398 2.85819 -1.57199 3.71566 0.14294 c 1.85787 3.5728 -6.57384 4.28733 -6.14511 -0.42873 c 0.14294 -1.85787 1.71493 -3.71566 4.43027 -3.71566 c 4.85892 0 4.00145 4.57312 5.00185 4.57312 c 1.42905 0 0 -5.71646 -5.00185 -5.71646 c -3.43377 0 -5.18371 2.42031 -5.43067 4.73261 z M 266.70772 167.86297 c 0.0326 -0.00316 0.06511 -0.00715 0.09754 -0.01197 c 0.03235 -0.00482 0.06461 -0.01039 0.09671 -0.0168 c 0.0321 -0.0064 0.06403 -0.01356 0.09587 -0.02154 c 0.03176 -0.00798 0.06328 -0.01671 0.09462 -0.02619 c 0.03135 -0.00948 0.06236 -0.01979 0.09321 -0.03077 c 0.03085 -0.01106 0.06136 -0.02287 0.09163 -0.03534 c 0.03027 -0.01253 0.0602 -0.02581 0.0898 -0.03983 c 0.0296 -0.01397 0.05879 -0.02869 0.08773 -0.04415 c 0.02885 -0.01547 0.05729 -0.0316 0.08539 -0.0484 c 0.02811 -0.01688 0.05571 -0.03434 0.08299 -0.05255 c 0.02719 -0.01821 0.05397 -0.037 0.08024 -0.05655 c 0.02636 -0.01946 0.05214 -0.03966 0.07741 -0.06037 c 0.02536 -0.02079 0.05014 -0.04216 0.07442 -0.06419 c 0.0242 -0.02195 0.04798 -0.04457 0.0711 -0.06769 c 0.02312 -0.0232 0.04574 -0.0469 0.06769 -0.07118 c 0.02204 -0.0242 0.04341 -0.04898 0.06419 -0.07434 c 0.02079 -0.02528 0.04091 -0.05114 0.06037 -0.07741 c 0.01954 -0.02627 0.03841 -0.05305 0.05655 -0.08024 c 0.01821 -0.02728 0.03575 -0.05496 0.05255 -0.08299 c 0.01688 -0.02811 0.03301 -0.05655 0.0484 -0.08548 c 0.01547 -0.02885 0.03018 -0.05813 0.04415 -0.08773 c 0.01405 -0.0296 0.02728 -0.05946 0.03983 -0.08972 c 0.01253 -0.03027 0.02431 -0.06081 0.03534 -0.09163 c 0.01106 -0.03085 0.02129 -0.06195 0.03077 -0.09329 c 0.00956 -0.03127 0.01829 -0.06286 0.02619 -0.09462 c 0.00798 -0.03176 0.01514 -0.06369 0.02154 -0.09579 c 0.0064 -0.0321 0.01197 -0.06436 0.0168 -0.09679 c 0.00482 -0.03235 0.00881 -0.06486 0.01206 -0.09745 c 0.00316 -0.0326 0.00557 -0.06519 0.00715 -0.09795 c 0.00167 -0.03268 0.00241 -0.06536 0.00241 -0.09812 c 0 -0.03276 -0.00075 -0.06544 -0.00241 -0.09821 c -0.00158 -0.03268 -0.00399 -0.06536 -0.00715 -0.09795 c -0.00324 -0.0326 -0.00724 -0.06502 -0.01206 -0.09745 c -0.00482 -0.03235 -0.01039 -0.06461 -0.0168 -0.09671 c -0.0064 -0.0321 -0.01356 -0.06411 -0.02154 -0.09587 c -0.0079 -0.03176 -0.01663 -0.06328 -0.02619 -0.09462 c -0.00948 -0.03135 -0.0197 -0.06236 -0.03077 -0.09321 c -0.01103 -0.03082 -0.02281 -0.06136 -0.03534 -0.09163 c -0.01253 -0.03027 -0.02581 -0.0602 -0.03983 -0.0898 c -0.01397 -0.0296 -0.02869 -0.05879 -0.04415 -0.08773 c -0.01538 -0.02885 -0.03151 -0.05729 -0.0484 -0.08539 c -0.0168 -0.02811 -0.03434 -0.05571 -0.05255 -0.08299 c -0.01813 -0.02719 -0.037 -0.05397 -0.05655 -0.08024 c -0.01946 -0.02636 -0.03958 -0.05214 -0.06037 -0.0775 c -0.02079 -0.02528 -0.04216 -0.05006 -0.06419 -0.07434 c -0.02195 -0.02428 -0.04457 -0.04798 -0.06769 -0.0711 c -0.02312 -0.0232 -0.0469 -0.04574 -0.0711 -0.06769 c -0.02428 -0.02204 -0.04906 -0.04341 -0.07442 -0.06419 c -0.02528 -0.02079 -0.05106 -0.04091 -0.07741 -0.06037 c -0.02627 -0.01954 -0.05305 -0.03841 -0.08024 -0.05655 c -0.02728 -0.01821 -0.05488 -0.03575 -0.08299 -0.05255 c -0.02811 -0.01688 -0.05655 -0.03301 -0.08539 -0.0484 c -0.02894 -0.01547 -0.05813 -0.03018 -0.08773 -0.04415 c -0.0296 -0.01402 -0.05954 -0.0273 -0.0898 -0.03983 c -0.03027 -0.01253 -0.06081 -0.02431 -0.09163 -0.03534 c -0.03085 -0.01106 -0.06187 -0.02129 -0.09321 -0.03085 c -0.03135 -0.00948 -0.06286 -0.01821 -0.09462 -0.02611 c -0.03185 -0.00798 -0.06378 -0.01514 -0.09587 -0.02154 c -0.0321 -0.0064 -0.06436 -0.01197 -0.09671 -0.0168 c -0.03243 -0.00482 -0.06494 -0.00881 -0.09754 -0.01206 c -0.03252 -0.00316 -0.06519 -0.00557 -0.09787 -0.00715 c -0.03276 -0.00167 -0.06544 -0.00249 -0.09821 -0.00249 c -0.03276 0 -0.06544 0.00083 -0.09812 0.00249 c -0.03276 0.00158 -0.06536 0.00399 -0.09795 0.00715 c -0.0326 0.00324 -0.06511 0.00724 -0.09745 0.01206 c -0.03243 0.00482 -0.0647 0.01039 -0.09679 0.0168 c -0.0321 0.0064 -0.06403 0.01356 -0.09579 0.02154 c -0.03176 0.0079 -0.06337 0.01663 -0.09471 0.02611 c -0.03132 0.00954 -0.0624 0.01982 -0.09321 0.03085 c -0.03082 0.01103 -0.06136 0.02281 -0.09163 0.03534 c -0.03027 0.01256 -0.06012 0.02578 -0.08972 0.03983 c -0.0296 0.01397 -0.05887 0.02869 -0.08773 0.04415 c -0.02894 0.01538 -0.05737 0.03151 -0.08548 0.0484 c -0.02811 0.0168 -0.05571 0.03434 -0.08299 0.05255 c -0.02719 0.01813 -0.05397 0.037 -0.08024 0.05655 c -0.02633 0.01946 -0.05214 0.03958 -0.07741 0.06037 c -0.02536 0.02079 -0.05014 0.04216 -0.07434 0.06419 c -0.02428 0.02195 -0.04798 0.04449 -0.07118 0.06769 c -0.02312 0.02312 -0.04574 0.04681 -0.06769 0.0711 c -0.02204 0.02428 -0.04341 0.04906 -0.06411 0.07434 c -0.02079 0.02536 -0.04099 0.05114 -0.06045 0.0775 c -0.01954 0.02627 -0.03833 0.05305 -0.05655 0.08024 c -0.01821 0.02728 -0.03575 0.05488 -0.05255 0.08299 c -0.0168 0.02811 -0.03293 0.05655 -0.0484 0.08539 c -0.01547 0.02894 -0.03018 0.05813 -0.04415 0.08773 c -0.01397 0.0296 -0.02728 0.05954 -0.03983 0.0898 c -0.01248 0.03027 -0.02428 0.06079 -0.03534 0.09163 c -0.01098 0.03085 -0.02129 0.06187 -0.03077 0.09321 c -0.00948 0.03135 -0.01821 0.06286 -0.02619 0.09462 c -0.00798 0.03176 -0.01514 0.06378 -0.02154 0.09587 c -0.0064 0.0321 -0.01197 0.06436 -0.0168 0.09671 c -0.00482 0.03243 -0.00881 0.06486 -0.01197 0.09745 c -0.00324 0.0326 -0.00566 0.06527 -0.00724 0.09795 c -0.00167 0.03276 -0.00241 0.06544 -0.00241 0.09821 c 0 0.03276 0.0008 0.06547 0.00241 0.09812 c 0.00158 0.03276 0.00399 0.06536 0.00724 0.09795 c 0.00316 0.0326 0.00715 0.06511 0.01197 0.09745 c 0.00482 0.03243 0.01039 0.0647 0.0168 0.09679 c 0.0064 0.0321 0.01356 0.06403 0.02154 0.09579 c 0.00798 0.03176 0.01671 0.06337 0.02619 0.09462 c 0.00948 0.03135 0.01979 0.06245 0.03077 0.09329 c 0.01106 0.03085 0.02287 0.06136 0.03534 0.09163 c 0.01256 0.03027 0.02586 0.06012 0.03983 0.08972 c 0.01397 0.0296 0.02869 0.05884 0.04415 0.08773 c 0.01547 0.02894 0.0316 0.05737 0.0484 0.08548 c 0.0168 0.02811 0.03434 0.05571 0.05255 0.08299 c 0.01821 0.02719 0.037 0.05397 0.05655 0.08024 c 0.01946 0.02627 0.03966 0.05214 0.06045 0.07741 c 0.02074 0.02533 0.04211 0.05011 0.06411 0.07434 c 0.02195 0.02428 0.04457 0.04798 0.06769 0.07118 c 0.0232 0.02312 0.0469 0.04574 0.07118 0.06769 c 0.0242 0.02204 0.04898 0.04341 0.07434 0.06419 c 0.02528 0.02071 0.05114 0.04083 0.07741 0.06037 c 0.02627 0.01954 0.05305 0.03833 0.08024 0.05655 c 0.02728 0.01821 0.05488 0.03567 0.08299 0.05255 c 0.02811 0.0168 0.05655 0.03293 0.08548 0.0484 c 0.02885 0.01547 0.05813 0.03018 0.08773 0.04415 c 0.0296 0.01397 0.05946 0.02728 0.08972 0.03983 c 0.03027 0.01253 0.06081 0.02431 0.09163 0.03534 c 0.03085 0.01098 0.06195 0.02129 0.09321 0.03077 c 0.03135 0.00948 0.06295 0.01821 0.09471 0.02619 c 0.03176 0.00798 0.06369 0.01514 0.09579 0.02154 c 0.0321 0.0064 0.06436 0.01197 0.09679 0.0168 c 0.03235 0.00482 0.06486 0.00881 0.09745 0.01197 c 0.0326 0.00324 0.06519 0.00566 0.09795 0.00724 c 0.03268 0.00158 0.06536 0.00241 0.09812 0.00241 c 0.03276 0 0.06544 -0.00083 0.09821 -0.00241 c 0.03268 -0.00158 0.06536 -0.00399 0.09787 -0.00724 z M 271.13798 167.86297 c 0.0326 -0.00316 0.06511 -0.00715 0.09745 -0.01197 c 0.03243 -0.00482 0.0647 -0.01039 0.09679 -0.0168 c 0.0321 -0.0064 0.06403 -0.01356 0.09579 -0.02154 c 0.03176 -0.00798 0.06337 -0.01671 0.09462 -0.02619 c 0.03135 -0.00948 0.06245 -0.01979 0.09329 -0.03077 c 0.03077 -0.01106 0.06136 -0.02287 0.09163 -0.03534 c 0.03018 -0.01256 0.06012 -0.02586 0.08972 -0.03983 c 0.0296 -0.01397 0.05887 -0.02869 0.08773 -0.04415 c 0.02894 -0.01547 0.05737 -0.0316 0.08548 -0.0484 c 0.02802 -0.01688 0.05571 -0.03434 0.0829 -0.05255 c 0.02728 -0.01821 0.05405 -0.037 0.08032 -0.05655 c 0.02627 -0.01946 0.05214 -0.03966 0.07741 -0.06037 c 0.02528 -0.02079 0.05006 -0.04216 0.07442 -0.06419 c 0.0242 -0.02195 0.04781 -0.04457 0.07101 -0.06769 c 0.0232 -0.0232 0.04582 -0.0469 0.06769 -0.07118 c 0.022 -0.02422 0.04341 -0.04901 0.06419 -0.07434 c 0.02079 -0.02528 0.04091 -0.05114 0.06045 -0.07741 c 0.01954 -0.02627 0.03841 -0.05305 0.05663 -0.08024 c 0.01821 -0.02728 0.03567 -0.05496 0.05239 -0.08299 c 0.01688 -0.02811 0.03301 -0.05655 0.04848 -0.08548 c 0.01547 -0.02885 0.03018 -0.05813 0.04415 -0.08773 c 0.01405 -0.0296 0.02728 -0.05946 0.03974 -0.08972 c 0.01256 -0.03027 0.02437 -0.06079 0.03542 -0.09163 c 0.01098 -0.03085 0.0212 -0.06195 0.03077 -0.09329 c 0.00948 -0.03127 0.01821 -0.06286 0.02611 -0.09462 c 0.00798 -0.03176 0.01522 -0.06369 0.02162 -0.09579 c 0.00632 -0.0321 0.01197 -0.06436 0.01671 -0.09679 c 0.00482 -0.03235 0.00889 -0.06486 0.01214 -0.09745 c 0.00316 -0.0326 0.00549 -0.06519 0.00715 -0.09795 c 0.00158 -0.03268 0.00241 -0.06536 0.00241 -0.09812 c 0 -0.03276 -0.00083 -0.06544 -0.00241 -0.09821 c -0.00167 -0.03268 -0.00399 -0.06536 -0.00715 -0.09795 c -0.00324 -0.0326 -0.00732 -0.06502 -0.01214 -0.09745 c -0.00474 -0.03235 -0.01039 -0.06461 -0.01671 -0.09671 c -0.0064 -0.0321 -0.01364 -0.06411 -0.02162 -0.09587 c -0.0079 -0.03176 -0.01663 -0.06328 -0.02611 -0.09462 c -0.00956 -0.03135 -0.01979 -0.06236 -0.03077 -0.09321 c -0.01106 -0.03085 -0.02287 -0.06136 -0.03542 -0.09163 c -0.01248 -0.03027 -0.02572 -0.0602 -0.03974 -0.0898 c -0.01397 -0.0296 -0.02869 -0.05879 -0.04415 -0.08773 c -0.01541 -0.02889 -0.03157 -0.05735 -0.04848 -0.08539 c -0.01671 -0.02811 -0.03418 -0.05571 -0.05239 -0.08299 c -0.01824 -0.02722 -0.03712 -0.05397 -0.05663 -0.08024 c -0.01954 -0.02636 -0.03966 -0.05214 -0.06045 -0.0775 c -0.02079 -0.02528 -0.04216 -0.05006 -0.06419 -0.07434 c -0.02187 -0.02428 -0.04449 -0.04798 -0.06769 -0.0711 c -0.0232 -0.0232 -0.04681 -0.04574 -0.07101 -0.06769 c -0.02437 -0.02204 -0.04914 -0.04341 -0.07442 -0.06419 c -0.02528 -0.02079 -0.05114 -0.04091 -0.07741 -0.06037 c -0.02627 -0.01954 -0.05305 -0.03841 -0.08032 -0.05655 c -0.02719 -0.01821 -0.05488 -0.03575 -0.0829 -0.05255 c -0.02811 -0.01688 -0.05655 -0.03301 -0.08548 -0.0484 c -0.02885 -0.01547 -0.05813 -0.03018 -0.08773 -0.04415 c -0.0296 -0.01405 -0.05954 -0.02728 -0.08972 -0.03983 c -0.03027 -0.01253 -0.06081 -0.02431 -0.09163 -0.03534 c -0.03082 -0.01103 -0.06192 -0.02131 -0.09329 -0.03085 c -0.03127 -0.00948 -0.06286 -0.01821 -0.09462 -0.02611 c -0.03176 -0.00798 -0.06369 -0.01514 -0.09579 -0.02154 c -0.0321 -0.0064 -0.06436 -0.01197 -0.09679 -0.0168 c -0.03235 -0.00482 -0.06486 -0.00881 -0.09745 -0.01206 c -0.0326 -0.00316 -0.06519 -0.00557 -0.09795 -0.00715 c -0.03268 -0.00167 -0.06536 -0.00249 -0.09812 -0.00249 c -0.03276 0 -0.06552 0.00083 -0.09821 0.00249 c -0.03268 0.00158 -0.06536 0.00399 -0.09795 0.00715 c -0.0326 0.00324 -0.06502 0.00724 -0.09745 0.01206 c -0.03235 0.00482 -0.06461 0.01039 -0.09671 0.0168 c -0.03218 0.0064 -0.06411 0.01356 -0.09587 0.02154 c -0.03176 0.0079 -0.06328 0.01663 -0.09462 0.02611 c -0.03132 0.00954 -0.0624 0.01982 -0.09321 0.03085 c -0.03082 0.01103 -0.06136 0.02281 -0.09163 0.03534 c -0.03027 0.01256 -0.0602 0.02578 -0.0898 0.03983 c -0.0296 0.01397 -0.05879 0.02869 -0.08773 0.04415 c -0.02885 0.01538 -0.05737 0.03151 -0.08539 0.0484 c -0.02811 0.0168 -0.05579 0.03434 -0.08299 0.05255 c -0.02719 0.01813 -0.05397 0.037 -0.08032 0.05655 c -0.02627 0.01946 -0.05205 0.03958 -0.07741 0.06037 c -0.02528 0.02079 -0.05006 0.04216 -0.07434 0.06419 c -0.02428 0.02195 -0.04798 0.04449 -0.0711 0.06769 c -0.0232 0.02312 -0.04574 0.04681 -0.06777 0.0711 c -0.02195 0.02428 -0.04332 0.04906 -0.06411 0.07434 c -0.02079 0.02536 -0.04091 0.05114 -0.06037 0.0775 c -0.01954 0.02627 -0.03841 0.05305 -0.05663 0.08024 c -0.01813 0.02728 -0.03567 0.05488 -0.05247 0.08299 c -0.01688 0.02811 -0.03301 0.05655 -0.0484 0.08539 c -0.01547 0.02894 -0.03018 0.05813 -0.04424 0.08773 c -0.01397 0.0296 -0.02722 0.05954 -0.03974 0.0898 c -0.01253 0.03027 -0.02431 0.06081 -0.03534 0.09163 c -0.01106 0.03085 -0.02129 0.06187 -0.03085 0.09321 c -0.00948 0.03135 -0.01821 0.06286 -0.02611 0.09462 c -0.00798 0.03176 -0.01514 0.06378 -0.02154 0.09587 c -0.0064 0.0321 -0.01197 0.06436 -0.0168 0.09671 c -0.00482 0.03243 -0.00881 0.06486 -0.01206 0.09745 c -0.00316 0.0326 -0.00557 0.06527 -0.00724 0.09795 c -0.00158 0.03276 -0.00241 0.06544 -0.00241 0.09821 c 0 0.03276 0.00083 0.06544 0.00241 0.09812 c 0.00167 0.03276 0.00407 0.06536 0.00724 0.09795 c 0.00324 0.0326 0.00724 0.06511 0.01206 0.09745 c 0.00482 0.03243 0.01039 0.0647 0.0168 0.09679 c 0.0064 0.0321 0.01356 0.06403 0.02154 0.09579 c 0.0079 0.03176 0.01663 0.06337 0.02611 0.09462 c 0.00956 0.03135 0.01979 0.06245 0.03085 0.09329 c 0.01103 0.03082 0.02281 0.06136 0.03534 0.09163 c 0.01256 0.03027 0.02578 0.06012 0.03974 0.08972 c 0.01405 0.0296 0.02877 0.05887 0.04424 0.08773 c 0.01538 0.02894 0.03151 0.05737 0.0484 0.08548 c 0.0168 0.02811 0.03434 0.05571 0.05247 0.08299 c 0.01821 0.02719 0.03708 0.05397 0.05663 0.08024 c 0.01946 0.02627 0.03958 0.05214 0.06037 0.07741 c 0.02079 0.02536 0.04216 0.05014 0.06411 0.07434 c 0.02204 0.02428 0.04457 0.04798 0.06777 0.07118 c 0.02312 0.02312 0.04681 0.04574 0.0711 0.06769 c 0.02428 0.02204 0.04906 0.04341 0.07434 0.06419 c 0.02536 0.02071 0.05114 0.04083 0.07741 0.06037 c 0.02636 0.01954 0.05313 0.03833 0.08032 0.05655 c 0.02719 0.01821 0.05488 0.03567 0.08299 0.05255 c 0.02802 0.0168 0.05655 0.03293 0.08539 0.0484 c 0.02894 0.01547 0.05813 0.03018 0.08773 0.04415 c 0.0296 0.01397 0.05954 0.02728 0.0898 0.03983 c 0.03027 0.01253 0.06081 0.02431 0.09163 0.03534 c 0.03077 0.01098 0.06187 0.02129 0.09321 0.03077 c 0.03135 0.00948 0.06286 0.01821 0.09462 0.02619 c 0.03176 0.00798 0.06369 0.01514 0.09587 0.02154 c 0.0321 0.0064 0.06436 0.01197 0.09671 0.0168 c 0.03243 0.00482 0.06486 0.00881 0.09745 0.01197 c 0.0326 0.00324 0.06527 0.00566 0.09795 0.00724 c 0.03268 0.00158 0.06544 0.00241 0.09821 0.00241 c 0.03276 0 0.06544 -0.00083 0.09812 -0.00241 c 0.03276 -0.00158 0.06536 -0.00399 0.09795 -0.00724 z M 264.56413 172.00744 c 0.03252 -0.00324 0.06502 -0.00724 0.09745 -0.01214 c 0.03235 -0.00474 0.06461 -0.01031 0.09671 -0.01671 c 0.0321 -0.0064 0.06411 -0.01356 0.09587 -0.02154 c 0.03176 -0.00798 0.06328 -0.01663 0.09462 -0.02619 c 0.03135 -0.00948 0.06236 -0.01979 0.09321 -0.03068 c 0.03085 -0.01106 0.06136 -0.02287 0.09163 -0.03551 c 0.03027 -0.01248 0.0602 -0.0257 0.0898 -0.03966 c 0.0296 -0.01405 0.05879 -0.02877 0.08773 -0.04424 c 0.02885 -0.01538 0.05729 -0.03151 0.08539 -0.0484 c 0.02811 -0.0168 0.05571 -0.03426 0.08299 -0.05247 c 0.02722 -0.01818 0.05397 -0.03703 0.08024 -0.05655 c 0.02636 -0.01954 0.05214 -0.03974 0.07741 -0.06045 c 0.02533 -0.02079 0.05014 -0.04219 0.07442 -0.06419 c 0.02428 -0.02195 0.04798 -0.04449 0.0711 -0.06777 c 0.02312 -0.02312 0.04574 -0.04681 0.06769 -0.07101 c 0.02204 -0.02428 0.04341 -0.04906 0.06419 -0.07434 c 0.02079 -0.02528 0.04091 -0.05114 0.06037 -0.07741 c 0.01954 -0.02627 0.03841 -0.05305 0.05655 -0.08032 c 0.01821 -0.02728 0.03575 -0.05496 0.05255 -0.08307 c 0.01688 -0.02802 0.03301 -0.05646 0.0484 -0.08531 c 0.01547 -0.02894 0.03018 -0.05817 0.04415 -0.08773 c 0.01405 -0.0296 0.02728 -0.05954 0.03983 -0.08972 c 0.01256 -0.03035 0.02428 -0.06087 0.03534 -0.0918 c 0.01106 -0.03077 0.02129 -0.06178 0.03077 -0.09313 c 0.00956 -0.03135 0.01829 -0.06286 0.02619 -0.09462 c 0.00798 -0.03185 0.01514 -0.06378 0.02154 -0.09587 c 0.0064 -0.0321 0.01197 -0.06436 0.0168 -0.09679 c 0.00482 -0.03235 0.00881 -0.06486 0.01206 -0.09745 c 0.00316 -0.0326 0.00557 -0.06519 0.00715 -0.09787 c 0.00167 -0.03268 0.00241 -0.06544 0.00241 -0.09821 c 0 -0.03276 -0.00075 -0.06552 -0.00241 -0.09821 c -0.00158 -0.03268 -0.00399 -0.06527 -0.00715 -0.09787 c -0.00324 -0.0326 -0.00724 -0.06502 -0.01206 -0.09745 c -0.00482 -0.03243 -0.01039 -0.06461 -0.0168 -0.09679 c -0.0064 -0.0321 -0.01356 -0.06403 -0.02154 -0.09587 c -0.0079 -0.03168 -0.01663 -0.06328 -0.02619 -0.09462 c -0.00948 -0.03127 -0.0197 -0.06236 -0.03077 -0.09313 c -0.01106 -0.03085 -0.02278 -0.06145 -0.03534 -0.09172 c -0.01256 -0.03027 -0.02578 -0.06012 -0.03983 -0.0898 c -0.01397 -0.02952 -0.02869 -0.05879 -0.04415 -0.08773 c -0.01538 -0.02885 -0.03151 -0.05729 -0.0484 -0.08531 c -0.0168 -0.02811 -0.03434 -0.05579 -0.05255 -0.08307 c -0.01813 -0.02719 -0.037 -0.05397 -0.05655 -0.08032 c -0.01946 -0.02627 -0.03958 -0.05205 -0.06037 -0.07741 c -0.02079 -0.02528 -0.04216 -0.05006 -0.06419 -0.07426 c -0.02195 -0.02428 -0.04457 -0.04798 -0.06769 -0.07118 c -0.02312 -0.02312 -0.04681 -0.04574 -0.0711 -0.06769 c -0.02428 -0.02204 -0.04906 -0.04341 -0.07442 -0.06419 c -0.02528 -0.02071 -0.05106 -0.04091 -0.07741 -0.06037 c -0.02627 -0.01954 -0.05305 -0.03833 -0.08024 -0.05655 c -0.02728 -0.01821 -0.05488 -0.03575 -0.08299 -0.05255 c -0.02811 -0.0168 -0.05655 -0.03293 -0.08539 -0.0484 c -0.02894 -0.01547 -0.05813 -0.03018 -0.08773 -0.04415 c -0.0296 -0.01397 -0.05954 -0.02728 -0.0898 -0.03983 c -0.03027 -0.01253 -0.06081 -0.02431 -0.09163 -0.03534 c -0.03085 -0.01098 -0.06187 -0.02129 -0.09321 -0.03077 c -0.03135 -0.00948 -0.06286 -0.01821 -0.09462 -0.02619 c -0.03176 -0.00798 -0.06378 -0.01514 -0.09587 -0.02154 c -0.0321 -0.0064 -0.06436 -0.01197 -0.09671 -0.0168 c -0.03243 -0.00482 -0.06494 -0.00881 -0.09745 -0.01197 c -0.0326 -0.00324 -0.06527 -0.00566 -0.09795 -0.00724 c -0.03276 -0.00167 -0.06544 -0.00241 -0.09821 -0.00241 c -0.03276 0 -0.06544 0.00075 -0.09812 0.00241 c -0.03276 0.00158 -0.06536 0.00399 -0.09795 0.00724 c -0.0326 0.00316 -0.06511 0.00715 -0.09745 0.01197 c -0.03243 0.00482 -0.0647 0.01039 -0.09679 0.0168 c -0.0321 0.0064 -0.06403 0.01356 -0.09579 0.02154 c -0.03176 0.00798 -0.06337 0.01671 -0.09462 0.02619 c -0.03135 0.00948 -0.06245 0.01979 -0.09329 0.03077 c -0.03085 0.01106 -0.06136 0.02287 -0.09163 0.03534 c -0.03027 0.01256 -0.06012 0.02586 -0.08972 0.03983 c -0.0296 0.01397 -0.05887 0.02869 -0.08773 0.04415 c -0.02894 0.01547 -0.05737 0.0316 -0.08548 0.0484 c -0.02811 0.0168 -0.05571 0.03434 -0.08299 0.05255 c -0.02719 0.01821 -0.05397 0.037 -0.08024 0.05655 c -0.02627 0.01946 -0.05214 0.03966 -0.07741 0.06037 c -0.02536 0.02079 -0.05014 0.04216 -0.07434 0.06419 c -0.02428 0.02195 -0.04798 0.04457 -0.07118 0.06769 c -0.02312 0.0232 -0.04574 0.0469 -0.06769 0.07118 c -0.02204 0.0242 -0.04341 0.04898 -0.06411 0.07426 c -0.02079 0.02536 -0.04099 0.05114 -0.06045 0.07741 c -0.01954 0.02636 -0.03833 0.05313 -0.05655 0.08032 c -0.01821 0.02728 -0.03567 0.05496 -0.05255 0.08307 c -0.0168 0.02802 -0.03293 0.05646 -0.0484 0.08531 c -0.01547 0.02894 -0.03018 0.05821 -0.04415 0.08773 c -0.01397 0.02969 -0.02728 0.05954 -0.03983 0.0898 c -0.01248 0.03027 -0.02428 0.06087 -0.03534 0.09172 c -0.01098 0.03077 -0.02129 0.06187 -0.03077 0.09313 c -0.00948 0.03135 -0.01821 0.06295 -0.02619 0.09462 c -0.00798 0.03185 -0.01514 0.06378 -0.02154 0.09587 c -0.0064 0.03218 -0.01197 0.06436 -0.0168 0.09679 c -0.00482 0.03243 -0.00881 0.06486 -0.01197 0.09745 c -0.00324 0.0326 -0.00566 0.06519 -0.00724 0.09787 c -0.00158 0.03268 -0.00241 0.06544 -0.00241 0.09821 c 0 0.03276 0.00083 0.06552 0.00241 0.09821 c 0.00158 0.03268 0.00399 0.06527 0.00724 0.09787 c 0.00316 0.0326 0.00715 0.06511 0.01197 0.09745 c 0.00482 0.03243 0.01039 0.0647 0.0168 0.09679 c 0.0064 0.0321 0.01356 0.06403 0.02154 0.09587 c 0.00798 0.03176 0.01671 0.06328 0.02619 0.09462 c 0.00948 0.03135 0.01979 0.06236 0.03077 0.09313 c 0.01106 0.03093 0.02287 0.06145 0.03534 0.0918 c 0.01256 0.03018 0.02586 0.06012 0.03983 0.08972 c 0.01402 0.02955 0.02874 0.05879 0.04415 0.08773 c 0.01547 0.02885 0.0316 0.05737 0.0484 0.08531 c 0.01688 0.02811 0.03434 0.05579 0.05255 0.08307 c 0.01821 0.02728 0.037 0.05405 0.05655 0.08032 c 0.01946 0.02627 0.03966 0.05214 0.06045 0.07741 c 0.02071 0.02528 0.04208 0.05006 0.06411 0.07434 c 0.02195 0.0242 0.04457 0.04789 0.06769 0.07101 c 0.0232 0.02328 0.0469 0.04582 0.07118 0.06777 c 0.0242 0.02204 0.04898 0.04341 0.07434 0.06419 c 0.02528 0.02071 0.05114 0.04091 0.07741 0.06045 c 0.02627 0.01951 0.05302 0.03836 0.08024 0.05655 c 0.02728 0.01821 0.05488 0.03567 0.08299 0.05247 c 0.02811 0.01688 0.05655 0.03301 0.08548 0.0484 c 0.02885 0.01547 0.05813 0.03018 0.08773 0.04424 c 0.0296 0.01397 0.05946 0.02719 0.08972 0.03966 c 0.03027 0.01264 0.06079 0.02445 0.09163 0.03551 c 0.03085 0.01089 0.06195 0.0212 0.09329 0.03068 c 0.03127 0.00956 0.06286 0.01821 0.09462 0.02619 c 0.03176 0.00798 0.06369 0.01516 0.09579 0.02154 c 0.0321 0.0064 0.06436 0.01197 0.09679 0.01671 c 0.03235 0.0049 0.06486 0.00889 0.09745 0.01214 c 0.0326 0.00316 0.06519 0.00557 0.09795 0.00715 c 0.03268 0.00167 0.06536 0.00241 0.09812 0.00241 c 0.03276 0 0.06544 -0.00075 0.09821 -0.00241 c 0.03268 -0.00158 0.06536 -0.00399 0.09795 -0.00715 z M 270.79656 170.11448 c 0.00158 -0.03268 0.00241 -0.06544 0.00241 -0.09821 c 0 -0.03276 -0.00083 -0.06552 -0.00241 -0.09821 c -0.00158 -0.03268 -0.00399 -0.06527 -0.00724 -0.09787 c -0.00316 -0.0326 -0.00724 -0.06502 -0.01197 -0.09745 c -0.00482 -0.03243 -0.01039 -0.06461 -0.0168 -0.09679 c -0.0064 -0.0321 -0.01356 -0.06403 -0.02154 -0.09587 c -0.00798 -0.03168 -0.01671 -0.06328 -0.02619 -0.09462 c -0.00948 -0.03127 -0.01979 -0.06236 -0.03085 -0.09313 c -0.01098 -0.03085 -0.02278 -0.06145 -0.03534 -0.09172 c -0.01248 -0.03027 -0.02578 -0.06012 -0.03974 -0.0898 c -0.01397 -0.02952 -0.02869 -0.05879 -0.04415 -0.08773 c -0.01547 -0.02885 -0.0316 -0.05729 -0.0484 -0.08531 c -0.01688 -0.02811 -0.03434 -0.05579 -0.05255 -0.08307 c -0.01821 -0.02719 -0.03708 -0.05397 -0.05655 -0.08032 c -0.01954 -0.02627 -0.03966 -0.05205 -0.06045 -0.07741 c -0.02071 -0.02528 -0.04216 -0.05006 -0.06411 -0.07426 c -0.02195 -0.02428 -0.04457 -0.04798 -0.06769 -0.07118 c -0.0232 -0.02312 -0.0469 -0.04574 -0.07118 -0.06769 c -0.0242 -0.02204 -0.04906 -0.04341 -0.07434 -0.06419 c -0.02528 -0.02071 -0.05114 -0.04091 -0.07741 -0.06037 c -0.02627 -0.01954 -0.05305 -0.03833 -0.08032 -0.05655 c -0.02719 -0.01821 -0.05488 -0.03575 -0.0829 -0.05255 c -0.02811 -0.0168 -0.05663 -0.03293 -0.08548 -0.0484 c -0.02885 -0.01547 -0.05813 -0.03018 -0.08773 -0.04415 c -0.0296 -0.01397 -0.05954 -0.02728 -0.08972 -0.03983 c -0.03027 -0.01253 -0.06081 -0.02431 -0.09163 -0.03534 c -0.03085 -0.01098 -0.06195 -0.02129 -0.09329 -0.03077 c -0.03127 -0.00948 -0.06286 -0.01821 -0.09462 -0.02619 c -0.03176 -0.00798 -0.06369 -0.01514 -0.09579 -0.02154 c -0.0321 -0.0064 -0.06436 -0.01197 -0.09679 -0.0168 c -0.03235 -0.00482 -0.06486 -0.00881 -0.09745 -0.01197 c -0.0326 -0.00324 -0.06519 -0.00566 -0.09795 -0.00724 c -0.03268 -0.00167 -0.06536 -0.00241 -0.09812 -0.00241 c -0.03276 0 -0.06552 0.00075 -0.09821 0.00241 c -0.03268 0.00158 -0.06536 0.00399 -0.09795 0.00724 c -0.0326 0.00316 -0.06502 0.00715 -0.09745 0.01197 c -0.03235 0.00482 -0.06461 0.01039 -0.09671 0.0168 c -0.03218 0.0064 -0.06411 0.01356 -0.09587 0.02154 c -0.03176 0.00798 -0.06328 0.01671 -0.09462 0.02619 c -0.03135 0.00948 -0.06245 0.01979 -0.09321 0.03077 c -0.03085 0.01106 -0.06136 0.02287 -0.09163 0.03534 c -0.03027 0.01256 -0.0602 0.02586 -0.0898 0.03983 c -0.0296 0.01397 -0.05879 0.02869 -0.08773 0.04415 c -0.02885 0.01547 -0.05737 0.0316 -0.08539 0.0484 c -0.02811 0.0168 -0.05579 0.03434 -0.08299 0.05255 c -0.02719 0.01821 -0.05397 0.037 -0.08032 0.05655 c -0.02627 0.01946 -0.05205 0.03966 -0.07741 0.06037 c -0.02528 0.02079 -0.05006 0.04216 -0.07434 0.06419 c -0.02428 0.02195 -0.04798 0.04457 -0.0711 0.06769 c -0.0232 0.0232 -0.04574 0.0469 -0.06769 0.07118 c -0.02204 0.0242 -0.04341 0.04898 -0.06419 0.07426 c -0.02079 0.02536 -0.04091 0.05114 -0.06037 0.07741 c -0.01954 0.02636 -0.03841 0.05313 -0.05663 0.08032 c -0.01813 0.02728 -0.03567 0.05496 -0.05247 0.08307 c -0.01688 0.02802 -0.03301 0.05646 -0.0484 0.08531 c -0.01547 0.02894 -0.03018 0.05821 -0.04415 0.08773 c -0.01405 0.02969 -0.02728 0.05954 -0.03983 0.0898 c -0.01256 0.03027 -0.02428 0.06087 -0.03534 0.09172 c -0.01106 0.03077 -0.02129 0.06187 -0.03085 0.09313 c -0.00948 0.03135 -0.01821 0.06295 -0.02611 0.09462 c -0.00798 0.03185 -0.01514 0.06378 -0.02154 0.09587 c -0.0064 0.03218 -0.01197 0.06436 -0.0168 0.09679 c -0.00482 0.03243 -0.00881 0.06486 -0.01206 0.09745 c -0.00316 0.0326 -0.00557 0.06519 -0.00724 0.09787 c -0.00158 0.03268 -0.00241 0.06544 -0.00241 0.09821 c 0 0.03276 0.00083 0.06552 0.00241 0.09821 c 0.00167 0.03268 0.00407 0.06527 0.00724 0.09787 c 0.00324 0.0326 0.00724 0.06511 0.01206 0.09745 c 0.00482 0.03243 0.01039 0.0647 0.0168 0.09679 c 0.0064 0.0321 0.01356 0.06403 0.02154 0.09587 c 0.0079 0.03176 0.01663 0.06328 0.02611 0.09462 c 0.00956 0.03135 0.01979 0.06236 0.03085 0.09313 c 0.01106 0.03093 0.02278 0.06145 0.03534 0.0918 c 0.01256 0.03018 0.02578 0.06012 0.03983 0.08972 c 0.01397 0.02955 0.02869 0.05879 0.04415 0.08773 c 0.01538 0.02885 0.03151 0.05729 0.0484 0.08531 c 0.0168 0.02811 0.03434 0.05579 0.05247 0.08307 c 0.01821 0.02728 0.03708 0.05405 0.05663 0.08032 c 0.01946 0.02627 0.03958 0.05214 0.06037 0.07741 c 0.02079 0.02528 0.04216 0.05006 0.06419 0.07434 c 0.02195 0.0242 0.04449 0.04789 0.06769 0.07101 c 0.02312 0.02328 0.04681 0.04582 0.0711 0.06777 c 0.02428 0.02204 0.04906 0.04341 0.07434 0.06419 c 0.02536 0.02071 0.05114 0.04091 0.07741 0.06045 c 0.02633 0.01951 0.0531 0.03836 0.08032 0.05655 c 0.02719 0.01821 0.05488 0.03567 0.08299 0.05247 c 0.02805 0.01685 0.05652 0.03298 0.08539 0.0484 c 0.02894 0.01547 0.05813 0.03018 0.08773 0.04424 c 0.0296 0.01397 0.05954 0.02719 0.0898 0.03966 c 0.03027 0.01264 0.06079 0.02445 0.09163 0.03551 c 0.03077 0.01089 0.06187 0.0212 0.09321 0.03068 c 0.03135 0.00956 0.06286 0.01821 0.09462 0.02619 c 0.03176 0.00798 0.06369 0.01514 0.09587 0.02154 c 0.0321 0.0064 0.06436 0.01197 0.09671 0.01671 c 0.03243 0.0049 0.06486 0.00889 0.09745 0.01214 c 0.0326 0.00316 0.06527 0.00557 0.09795 0.00715 c 0.03268 0.00167 0.06544 0.00241 0.09821 0.00241 c 0.03276 0 0.06544 -0.00075 0.09812 -0.00241 c 0.03276 -0.00158 0.06536 -0.00399 0.09795 -0.00715 c 0.0326 -0.00324 0.06511 -0.00724 0.09745 -0.01214 c 0.03243 -0.00474 0.0647 -0.01031 0.09679 -0.01671 c 0.0321 -0.0064 0.06403 -0.01356 0.09579 -0.02154 c 0.03176 -0.00798 0.06337 -0.01663 0.09462 -0.02619 c 0.03135 -0.00948 0.06245 -0.01979 0.09329 -0.03068 c 0.03077 -0.01106 0.06136 -0.02287 0.09163 -0.03551 c 0.03018 -0.01248 0.06012 -0.0257 0.08972 -0.03966 c 0.0296 -0.01405 0.05887 -0.02877 0.08773 -0.04424 c 0.02894 -0.01538 0.05737 -0.03151 0.08548 -0.0484 c 0.02802 -0.0168 0.05571 -0.03426 0.0829 -0.05247 c 0.02728 -0.01821 0.05405 -0.03708 0.08032 -0.05655 c 0.02627 -0.01954 0.05214 -0.03974 0.07741 -0.06045 c 0.02533 -0.02079 0.05011 -0.04219 0.07434 -0.06419 c 0.02428 -0.02195 0.04798 -0.04449 0.07118 -0.06777 c 0.02312 -0.02312 0.04574 -0.04681 0.06769 -0.07101 c 0.02195 -0.02428 0.04341 -0.04906 0.06411 -0.07434 c 0.02079 -0.02528 0.04091 -0.05114 0.06045 -0.07741 c 0.01946 -0.02627 0.03833 -0.05305 0.05655 -0.08032 c 0.01821 -0.02728 0.03567 -0.05496 0.05255 -0.08307 c 0.0168 -0.02794 0.03293 -0.05646 0.0484 -0.08531 c 0.01547 -0.02894 0.03018 -0.05821 0.04415 -0.08773 c 0.01397 -0.0296 0.02728 -0.05954 0.03974 -0.08972 c 0.01256 -0.03035 0.02437 -0.06087 0.03534 -0.0918 c 0.01106 -0.03077 0.02137 -0.06178 0.03085 -0.09313 c 0.00948 -0.03135 0.01821 -0.06286 0.02619 -0.09462 c 0.00798 -0.03185 0.01514 -0.06378 0.02154 -0.09587 c 0.0064 -0.0321 0.01197 -0.06436 0.0168 -0.09679 c 0.00474 -0.03235 0.00881 -0.06486 0.01197 -0.09745 c 0.00324 -0.0326 0.00566 -0.06519 0.00724 -0.09787 z M 275.22674 170.11448 c 0.00167 -0.03268 0.00249 -0.06544 0.00249 -0.09821 c 0 -0.03276 -0.00083 -0.06552 -0.00249 -0.09821 c -0.00161 -0.03265 -0.00396 -0.06527 -0.00707 -0.09787 c -0.00324 -0.0326 -0.00732 -0.06502 -0.01222 -0.09745 c -0.00474 -0.03243 -0.01031 -0.06461 -0.01671 -0.09679 c -0.00632 -0.0321 -0.01356 -0.06403 -0.02154 -0.09587 c -0.0079 -0.03168 -0.01663 -0.06328 -0.02619 -0.09462 c -0.00948 -0.03127 -0.0197 -0.06236 -0.03068 -0.09313 c -0.01106 -0.03085 -0.02287 -0.06145 -0.03542 -0.09172 c -0.01256 -0.03027 -0.02578 -0.06012 -0.03974 -0.0898 c -0.01405 -0.02952 -0.02877 -0.05879 -0.04415 -0.08773 c -0.01547 -0.02885 -0.0316 -0.05729 -0.04848 -0.08531 c -0.0168 -0.02811 -0.03426 -0.05579 -0.05247 -0.08307 c -0.01821 -0.02719 -0.037 -0.05397 -0.05655 -0.08032 c -0.01954 -0.02627 -0.03966 -0.05205 -0.06045 -0.07741 c -0.02079 -0.02528 -0.04216 -0.05006 -0.06419 -0.07426 c -0.02187 -0.02428 -0.04449 -0.04798 -0.06777 -0.07118 c -0.02312 -0.02312 -0.04681 -0.04574 -0.07101 -0.06769 c -0.02428 -0.02204 -0.04906 -0.04341 -0.07426 -0.06419 c -0.02536 -0.02071 -0.05122 -0.04091 -0.0775 -0.06037 c -0.02627 -0.01954 -0.05305 -0.03833 -0.08032 -0.05655 c -0.02728 -0.01821 -0.05488 -0.03575 -0.08299 -0.05255 c -0.02802 -0.0168 -0.05646 -0.03293 -0.08531 -0.0484 c -0.02902 -0.01547 -0.05829 -0.03018 -0.08781 -0.04415 c -0.0296 -0.01397 -0.05954 -0.02728 -0.08972 -0.03983 c -0.03027 -0.01248 -0.06087 -0.02428 -0.09172 -0.03534 c -0.03077 -0.01098 -0.06187 -0.02129 -0.09321 -0.03077 c -0.03135 -0.00948 -0.06286 -0.01821 -0.09462 -0.02619 c -0.03176 -0.00798 -0.06378 -0.01514 -0.09587 -0.02154 c -0.0321 -0.0064 -0.06436 -0.01197 -0.09679 -0.0168 c -0.03235 -0.00482 -0.06486 -0.00881 -0.09745 -0.01197 c -0.03252 -0.00324 -0.06519 -0.00566 -0.09787 -0.00724 c -0.03268 -0.00167 -0.06536 -0.00241 -0.09821 -0.00241 c -0.03276 0 -0.06544 0.00075 -0.09812 0.00241 c -0.03268 0.00158 -0.06536 0.00399 -0.09795 0.00724 c -0.03252 0.00316 -0.06502 0.00715 -0.09745 0.01197 c -0.03235 0.00482 -0.06461 0.01039 -0.09671 0.0168 c -0.0321 0.0064 -0.06411 0.01356 -0.09596 0.02154 c -0.03168 0.00798 -0.0632 0.01671 -0.09454 0.02619 c -0.03138 0.00948 -0.06245 0.01974 -0.09321 0.03077 c -0.03085 0.01106 -0.06145 0.02287 -0.09172 0.03534 c -0.03018 0.01256 -0.06012 0.02586 -0.0898 0.03983 c -0.02952 0.01397 -0.0587 0.02869 -0.08773 0.04415 c -0.02885 0.01547 -0.05729 0.0316 -0.08539 0.0484 c -0.02802 0.0168 -0.05571 0.03434 -0.0829 0.05255 c -0.02728 0.01821 -0.05405 0.037 -0.08032 0.05655 c -0.02627 0.01946 -0.05214 0.03966 -0.07741 0.06037 c -0.02528 0.02079 -0.05006 0.04216 -0.07434 0.06419 c -0.02428 0.02195 -0.04798 0.04457 -0.07118 0.06769 c -0.02312 0.0232 -0.04565 0.0469 -0.06769 0.07118 c -0.02195 0.0242 -0.04332 0.04898 -0.06411 0.07426 c -0.02079 0.02536 -0.04091 0.05114 -0.06045 0.07741 c -0.01946 0.02636 -0.03833 0.05313 -0.05655 0.08032 c -0.01821 0.02728 -0.03567 0.05496 -0.05255 0.08307 c -0.0168 0.02802 -0.03293 0.05646 -0.0484 0.08531 c -0.01538 0.02894 -0.0301 0.05821 -0.04415 0.08773 c -0.01397 0.02969 -0.02728 0.05954 -0.03974 0.0898 c -0.01256 0.03027 -0.02437 0.06087 -0.03534 0.09172 c -0.01106 0.03077 -0.02137 0.06187 -0.03085 0.09313 c -0.00948 0.03135 -0.01821 0.06295 -0.02619 0.09462 c -0.0079 0.03185 -0.01514 0.06378 -0.02154 0.09587 c -0.00632 0.03218 -0.01197 0.06436 -0.0168 0.09679 c -0.00474 0.03243 -0.00881 0.06486 -0.01197 0.09745 c -0.00324 0.0326 -0.00566 0.06519 -0.00724 0.09787 c -0.00158 0.03268 -0.00241 0.06544 -0.00241 0.09821 c 0 0.03276 0.00083 0.06552 0.00241 0.09821 c 0.00158 0.03268 0.00399 0.06527 0.00724 0.09787 c 0.00316 0.0326 0.00724 0.06511 0.01197 0.09745 c 0.00482 0.03243 0.01048 0.0647 0.0168 0.09679 c 0.0064 0.0321 0.01364 0.06403 0.02154 0.09587 c 0.00798 0.03176 0.01671 0.06328 0.02619 0.09462 c 0.00948 0.03135 0.01979 0.06236 0.03085 0.09313 c 0.01098 0.03093 0.02278 0.06145 0.03534 0.0918 c 0.01248 0.03018 0.02578 0.06012 0.03974 0.08972 c 0.01405 0.02952 0.02877 0.05879 0.04415 0.08773 c 0.01547 0.02885 0.0316 0.05729 0.0484 0.08531 c 0.01688 0.02811 0.03434 0.05579 0.05255 0.08307 c 0.01821 0.02728 0.03708 0.05405 0.05655 0.08032 c 0.01954 0.02627 0.03966 0.05214 0.06045 0.07741 c 0.02079 0.02528 0.04216 0.05006 0.06411 0.07434 c 0.02204 0.0242 0.04457 0.04789 0.06769 0.07101 c 0.0232 0.02328 0.0469 0.04582 0.07118 0.06777 c 0.02422 0.022 0.04901 0.04341 0.07434 0.06419 c 0.02528 0.02071 0.05114 0.04091 0.07741 0.06045 c 0.02633 0.01951 0.0531 0.03836 0.08032 0.05655 c 0.02719 0.01821 0.05488 0.03567 0.0829 0.05247 c 0.02811 0.01688 0.05655 0.03301 0.08539 0.0484 c 0.02902 0.01547 0.05821 0.03018 0.08773 0.04424 c 0.02969 0.01397 0.05962 0.02719 0.0898 0.03966 c 0.03027 0.01264 0.06087 0.02445 0.09172 0.03551 c 0.03077 0.01092 0.06184 0.02115 0.09321 0.03068 c 0.03135 0.00956 0.06286 0.01821 0.09454 0.02619 c 0.03185 0.00798 0.06386 0.01514 0.09596 0.02154 c 0.0321 0.00637 0.06433 0.01195 0.09671 0.01671 c 0.03243 0.0049 0.06494 0.00889 0.09745 0.01214 c 0.0326 0.00316 0.06527 0.00557 0.09795 0.00715 c 0.03268 0.00167 0.06536 0.00241 0.09812 0.00241 c 0.03284 0 0.06552 -0.00075 0.09821 -0.00241 c 0.03268 -0.00158 0.06536 -0.00399 0.09787 -0.00715 c 0.0326 -0.00324 0.06511 -0.00724 0.09745 -0.01214 c 0.03243 -0.00477 0.0647 -0.01034 0.09679 -0.01671 c 0.0321 -0.0064 0.06411 -0.01356 0.09587 -0.02154 c 0.03176 -0.00798 0.06328 -0.01663 0.09462 -0.02619 c 0.03135 -0.00948 0.06245 -0.01979 0.09321 -0.03068 c 0.03085 -0.01106 0.06145 -0.02287 0.09172 -0.03551 c 0.03018 -0.01248 0.06012 -0.0257 0.08972 -0.03966 c 0.02952 -0.01405 0.05879 -0.02877 0.08781 -0.04424 c 0.02885 -0.01538 0.05729 -0.03151 0.08531 -0.0484 c 0.02811 -0.0168 0.05571 -0.03426 0.08299 -0.05247 c 0.02728 -0.01818 0.05405 -0.03703 0.08032 -0.05655 c 0.02627 -0.01954 0.05214 -0.03974 0.0775 -0.06045 c 0.02519 -0.02079 0.04998 -0.04216 0.07426 -0.06419 c 0.0242 -0.02195 0.04789 -0.04449 0.07101 -0.06777 c 0.02328 -0.02312 0.0459 -0.04681 0.06777 -0.07101 c 0.02204 -0.02428 0.04341 -0.04906 0.06419 -0.07434 c 0.02079 -0.02528 0.04091 -0.05114 0.06045 -0.07741 c 0.01954 -0.02627 0.03833 -0.05305 0.05655 -0.08032 c 0.01821 -0.02728 0.03567 -0.05496 0.05247 -0.08307 c 0.01688 -0.02794 0.03301 -0.05646 0.04848 -0.08531 c 0.01538 -0.02894 0.0301 -0.05821 0.04415 -0.08773 c 0.01397 -0.0296 0.02728 -0.05954 0.03974 -0.08972 c 0.01256 -0.03035 0.02437 -0.06087 0.03542 -0.0918 c 0.01098 -0.03077 0.0212 -0.06178 0.03068 -0.09313 c 0.00956 -0.03135 0.01829 -0.06286 0.02619 -0.09462 c 0.00798 -0.03185 0.01522 -0.06378 0.02154 -0.09587 c 0.0064 -0.0321 0.01197 -0.06436 0.01671 -0.09679 c 0.0049 -0.03235 0.00898 -0.06486 0.01222 -0.09745 c 0.00308 -0.0326 0.00549 -0.06519 0.00707 -0.09787 z M 266.70772 176.00898 c 0.0326 -0.00324 0.06511 -0.00732 0.09754 -0.01214 c 0.03235 -0.00474 0.06461 -0.01031 0.09671 -0.01671 c 0.0321 -0.0064 0.06403 -0.01356 0.09587 -0.02162 c 0.03176 -0.0079 0.06328 -0.01663 0.09462 -0.02611 c 0.03135 -0.00956 0.06236 -0.01979 0.09321 -0.03077 c 0.03085 -0.01106 0.06136 -0.02287 0.09163 -0.03542 c 0.03027 -0.01248 0.0602 -0.0257 0.0898 -0.03974 c 0.0296 -0.01397 0.05879 -0.02869 0.08773 -0.04415 c 0.02885 -0.01547 0.05729 -0.0316 0.08539 -0.04848 c 0.02811 -0.0168 0.05571 -0.03434 0.08299 -0.05239 c 0.02722 -0.01824 0.05397 -0.03712 0.08024 -0.05663 c 0.02636 -0.01954 0.05214 -0.03966 0.07741 -0.06045 c 0.02536 -0.02079 0.05014 -0.04216 0.07442 -0.06419 c 0.0242 -0.02187 0.04798 -0.04449 0.0711 -0.06769 c 0.02312 -0.0232 0.04574 -0.04681 0.06769 -0.07101 c 0.02204 -0.02437 0.04341 -0.04906 0.06419 -0.07434 c 0.02079 -0.02533 0.04091 -0.05117 0.06037 -0.0775 c 0.01954 -0.02627 0.03841 -0.05305 0.05655 -0.08024 c 0.01821 -0.02728 0.03575 -0.05496 0.05255 -0.08307 c 0.01688 -0.02802 0.03301 -0.05646 0.0484 -0.08531 c 0.01547 -0.02894 0.03018 -0.05821 0.04415 -0.08773 c 0.01405 -0.02969 0.02728 -0.05954 0.03983 -0.0898 c 0.01256 -0.03027 0.02428 -0.06087 0.03534 -0.09172 c 0.01106 -0.03077 0.02129 -0.06187 0.03077 -0.09321 c 0.00956 -0.03135 0.01829 -0.06286 0.02619 -0.09454 c 0.00798 -0.03185 0.01514 -0.06378 0.02154 -0.09596 c 0.0064 -0.0321 0.01197 -0.06436 0.0168 -0.09671 c 0.00482 -0.03243 0.00881 -0.06486 0.01206 -0.09745 c 0.00316 -0.0326 0.00557 -0.06527 0.00715 -0.09795 c 0.00167 -0.03268 0.00241 -0.06536 0.00241 -0.09812 c 0 -0.03276 -0.00075 -0.06552 -0.00241 -0.09821 c -0.00158 -0.03268 -0.00399 -0.06527 -0.00715 -0.09787 c -0.00321 -0.0326 -0.00724 -0.06508 -0.01206 -0.09745 c -0.00482 -0.03243 -0.01039 -0.0647 -0.0168 -0.09679 c -0.0064 -0.0321 -0.01356 -0.06403 -0.02154 -0.09587 c -0.0079 -0.03176 -0.01663 -0.06328 -0.02619 -0.09462 c -0.00948 -0.03135 -0.0197 -0.06236 -0.03077 -0.09313 c -0.01106 -0.03093 -0.02278 -0.06145 -0.03534 -0.0918 c -0.01256 -0.03018 -0.02578 -0.06012 -0.03983 -0.08972 c -0.01397 -0.02952 -0.02869 -0.05879 -0.04415 -0.08773 c -0.01538 -0.02894 -0.03151 -0.05737 -0.0484 -0.08531 c -0.0168 -0.02811 -0.03434 -0.05579 -0.05255 -0.08307 c -0.01813 -0.02728 -0.037 -0.05405 -0.05655 -0.08032 c -0.01946 -0.02627 -0.03958 -0.05214 -0.06037 -0.07741 c -0.02079 -0.02528 -0.04216 -0.05006 -0.06419 -0.07434 c -0.02195 -0.0242 -0.04457 -0.04789 -0.06769 -0.07101 c -0.02312 -0.02328 -0.0469 -0.04582 -0.0711 -0.06777 c -0.02428 -0.02204 -0.04906 -0.04341 -0.07442 -0.06419 c -0.02528 -0.02071 -0.05106 -0.04091 -0.07741 -0.06045 c -0.02627 -0.01954 -0.05305 -0.03833 -0.08024 -0.05655 c -0.02728 -0.01821 -0.05488 -0.03567 -0.08299 -0.05247 c -0.02811 -0.01688 -0.05655 -0.03301 -0.08539 -0.04848 c -0.02894 -0.01538 -0.05813 -0.0301 -0.08773 -0.04415 c -0.0296 -0.01397 -0.05954 -0.02719 -0.0898 -0.03966 c -0.03027 -0.01264 -0.06079 -0.02445 -0.09163 -0.03551 c -0.03085 -0.01089 -0.06187 -0.0212 -0.09321 -0.03068 c -0.03135 -0.00956 -0.06286 -0.01829 -0.09462 -0.02619 c -0.03185 -0.00798 -0.06378 -0.01514 -0.09587 -0.02154 c -0.0321 -0.0064 -0.06436 -0.01197 -0.09671 -0.01671 c -0.03243 -0.0049 -0.06494 -0.00889 -0.09754 -0.01214 c -0.03252 -0.00316 -0.06519 -0.00557 -0.09787 -0.00715 c -0.03276 -0.00167 -0.06544 -0.00249 -0.09821 -0.00249 c -0.03276 0 -0.06547 0.00083 -0.09812 0.00249 c -0.03276 0.00158 -0.06536 0.00399 -0.09795 0.00715 c -0.0326 0.00324 -0.06511 0.00724 -0.09745 0.01214 c -0.03243 0.00474 -0.0647 0.01031 -0.09679 0.01671 c -0.0321 0.0064 -0.06403 0.01356 -0.09579 0.02154 c -0.03176 0.0079 -0.06337 0.01663 -0.09471 0.02619 c -0.03127 0.00948 -0.06236 0.01979 -0.09321 0.03068 c -0.03085 0.01106 -0.06136 0.02287 -0.09163 0.03551 c -0.03027 0.01248 -0.06012 0.0257 -0.08972 0.03966 c -0.0296 0.01405 -0.05887 0.02877 -0.08773 0.04415 c -0.02894 0.01547 -0.05737 0.0316 -0.08548 0.04848 c -0.02811 0.0168 -0.05571 0.03426 -0.08299 0.05247 c -0.02719 0.01821 -0.05397 0.037 -0.08024 0.05655 c -0.02627 0.01954 -0.05214 0.03974 -0.07741 0.06045 c -0.02533 0.02079 -0.05011 0.04219 -0.07434 0.06419 c -0.02428 0.02195 -0.04798 0.04449 -0.07118 0.06777 c -0.02312 0.02312 -0.04574 0.04681 -0.06769 0.07101 c -0.02204 0.02428 -0.04341 0.04906 -0.06411 0.07434 c -0.02079 0.02528 -0.04099 0.05114 -0.06045 0.07741 c -0.01954 0.02627 -0.03833 0.05305 -0.05655 0.08032 c -0.01821 0.02728 -0.03575 0.05496 -0.05255 0.08307 c -0.0168 0.02794 -0.03293 0.05638 -0.0484 0.08531 c -0.01547 0.02894 -0.03018 0.05821 -0.04415 0.08773 c -0.01397 0.0296 -0.02728 0.05954 -0.03983 0.08972 c -0.01248 0.03035 -0.02428 0.06087 -0.03534 0.0918 c -0.01098 0.03077 -0.02129 0.06178 -0.03077 0.09313 c -0.00948 0.03135 -0.01821 0.06286 -0.02619 0.09462 c -0.00798 0.03185 -0.01514 0.06378 -0.02154 0.09587 c -0.0064 0.0321 -0.01197 0.06436 -0.0168 0.09679 c -0.00477 0.03237 -0.00876 0.06486 -0.01197 0.09745 c -0.00324 0.0326 -0.00566 0.06519 -0.00724 0.09787 c -0.00167 0.03268 -0.00241 0.06544 -0.00241 0.09821 c 0 0.03276 0.00075 0.06544 0.00241 0.09812 c 0.00158 0.03268 0.00399 0.06536 0.00724 0.09795 c 0.00316 0.0326 0.00715 0.06502 0.01197 0.09745 c 0.00482 0.03235 0.01039 0.06461 0.0168 0.09671 c 0.0064 0.03218 0.01356 0.06411 0.02154 0.09596 c 0.00798 0.03168 0.01671 0.0632 0.02619 0.09454 c 0.00948 0.03135 0.01979 0.06245 0.03077 0.09321 c 0.01106 0.03085 0.02287 0.06145 0.03534 0.09172 c 0.01256 0.03027 0.02586 0.06012 0.03983 0.0898 c 0.01397 0.02949 0.02869 0.05873 0.04415 0.08773 c 0.01547 0.02885 0.0316 0.05729 0.0484 0.08531 c 0.0168 0.02811 0.03434 0.05579 0.05255 0.08307 c 0.01821 0.02719 0.037 0.05397 0.05655 0.08024 c 0.01946 0.02636 0.03966 0.05214 0.06045 0.0775 c 0.02071 0.02528 0.04208 0.04998 0.06411 0.07434 c 0.02195 0.0242 0.04457 0.04781 0.06769 0.07101 c 0.0232 0.0232 0.0469 0.04582 0.07118 0.06769 c 0.02422 0.022 0.04901 0.04341 0.07434 0.06419 c 0.02528 0.02079 0.05114 0.04091 0.07741 0.06045 c 0.02627 0.01954 0.05305 0.03841 0.08024 0.05663 c 0.02728 0.01804 0.05488 0.03559 0.08299 0.05239 c 0.02811 0.01688 0.05655 0.03301 0.08548 0.04848 c 0.02885 0.01547 0.05813 0.03018 0.08773 0.04415 c 0.0296 0.01405 0.05946 0.02728 0.08972 0.03974 c 0.03027 0.01256 0.06079 0.02437 0.09163 0.03542 c 0.03082 0.01098 0.06189 0.02123 0.09321 0.03077 c 0.03135 0.00948 0.06295 0.01821 0.09471 0.02611 c 0.03176 0.00798 0.06369 0.01522 0.09579 0.02162 c 0.0321 0.0064 0.06436 0.01197 0.09679 0.01671 c 0.03235 0.00482 0.06486 0.00889 0.09745 0.01214 c 0.0326 0.00316 0.06519 0.00549 0.09795 0.00715 c 0.03268 0.00158 0.06536 0.00241 0.09812 0.00241 c 0.03276 0 0.06544 -0.00083 0.09821 -0.00241 c 0.03268 -0.00167 0.06536 -0.00399 0.09787 -0.00715 z M 271.13798 176.00898 c 0.0326 -0.00324 0.06511 -0.00732 0.09745 -0.01214 c 0.03243 -0.00474 0.0647 -0.01031 0.09679 -0.01671 c 0.0321 -0.0064 0.06403 -0.01356 0.09579 -0.02162 c 0.03176 -0.0079 0.06337 -0.01663 0.09462 -0.02611 c 0.03138 -0.00954 0.06248 -0.01979 0.09329 -0.03077 c 0.03077 -0.01106 0.06136 -0.02287 0.09163 -0.03542 c 0.03018 -0.01248 0.06012 -0.0257 0.08972 -0.03974 c 0.0296 -0.01397 0.05887 -0.02869 0.08773 -0.04415 c 0.02894 -0.01547 0.05737 -0.0316 0.08548 -0.04848 c 0.02802 -0.0168 0.05571 -0.03434 0.0829 -0.05239 c 0.02728 -0.01821 0.05405 -0.03708 0.08032 -0.05663 c 0.02627 -0.01954 0.05214 -0.03966 0.07741 -0.06045 c 0.02528 -0.02079 0.05006 -0.04216 0.07442 -0.06419 c 0.0242 -0.02187 0.04781 -0.04449 0.07101 -0.06769 c 0.0232 -0.0232 0.04582 -0.04681 0.06769 -0.07101 c 0.02204 -0.02437 0.04341 -0.04906 0.06419 -0.07434 c 0.02079 -0.02536 0.04091 -0.05114 0.06045 -0.0775 c 0.01954 -0.02627 0.03841 -0.05305 0.05663 -0.08024 c 0.01821 -0.02728 0.03567 -0.05496 0.05239 -0.08307 c 0.01688 -0.02802 0.03301 -0.05646 0.04848 -0.08531 c 0.01547 -0.02894 0.03018 -0.05821 0.04415 -0.08773 c 0.01405 -0.02969 0.02728 -0.05954 0.03974 -0.0898 c 0.01256 -0.03027 0.02437 -0.06087 0.03542 -0.09172 c 0.01098 -0.03077 0.0212 -0.06187 0.03077 -0.09321 c 0.00948 -0.03135 0.01821 -0.06286 0.02611 -0.09454 c 0.00798 -0.03185 0.01522 -0.06378 0.02162 -0.09596 c 0.00637 -0.0321 0.01195 -0.06433 0.01671 -0.09671 c 0.00482 -0.03243 0.00889 -0.06486 0.01214 -0.09745 c 0.00316 -0.0326 0.00549 -0.06527 0.00715 -0.09795 c 0.00158 -0.03268 0.00241 -0.06536 0.00241 -0.09812 c 0 -0.03276 -0.00083 -0.06552 -0.00241 -0.09821 c -0.00167 -0.03268 -0.00399 -0.06527 -0.00715 -0.09787 c -0.00324 -0.0326 -0.00732 -0.06511 -0.01214 -0.09745 c -0.00477 -0.03243 -0.01034 -0.0647 -0.01671 -0.09679 c -0.0064 -0.0321 -0.01364 -0.06403 -0.02162 -0.09587 c -0.0079 -0.03176 -0.01663 -0.06328 -0.02611 -0.09462 c -0.00956 -0.03135 -0.01979 -0.06236 -0.03077 -0.09313 c -0.01106 -0.03093 -0.02287 -0.06145 -0.03542 -0.0918 c -0.01248 -0.03018 -0.0257 -0.06012 -0.03974 -0.08972 c -0.01397 -0.02952 -0.02869 -0.05879 -0.04415 -0.08773 c -0.01547 -0.02894 -0.0316 -0.05737 -0.04848 -0.08531 c -0.01671 -0.02811 -0.03418 -0.05579 -0.05239 -0.08307 c -0.01824 -0.02728 -0.03712 -0.05405 -0.05663 -0.08032 c -0.01954 -0.02627 -0.03966 -0.05214 -0.06045 -0.07741 c -0.02079 -0.02528 -0.04216 -0.05006 -0.06419 -0.07434 c -0.02187 -0.0242 -0.04449 -0.04789 -0.06769 -0.07101 c -0.0232 -0.02328 -0.04681 -0.04582 -0.07101 -0.06777 c -0.02437 -0.02204 -0.04914 -0.04341 -0.07442 -0.06419 c -0.02528 -0.02071 -0.05114 -0.04091 -0.07741 -0.06045 c -0.02627 -0.01954 -0.05305 -0.03833 -0.08032 -0.05655 c -0.02719 -0.01821 -0.05488 -0.03567 -0.0829 -0.05247 c -0.02811 -0.01688 -0.05655 -0.03301 -0.08548 -0.04848 c -0.02885 -0.01538 -0.05813 -0.0301 -0.08773 -0.04415 c -0.0296 -0.01397 -0.05954 -0.02719 -0.08972 -0.03966 c -0.03027 -0.01264 -0.06087 -0.02445 -0.09163 -0.03551 c -0.03085 -0.01089 -0.06195 -0.0212 -0.09329 -0.03068 c -0.03127 -0.00956 -0.06286 -0.01829 -0.09462 -0.02619 c -0.03176 -0.00798 -0.06369 -0.01514 -0.09579 -0.02154 c -0.0321 -0.0064 -0.06436 -0.01197 -0.09679 -0.01671 c -0.03235 -0.0049 -0.06486 -0.00889 -0.09745 -0.01214 c -0.0326 -0.00316 -0.06519 -0.00557 -0.09795 -0.00715 c -0.03268 -0.00167 -0.06536 -0.00249 -0.09812 -0.00249 c -0.03276 0 -0.0655 0.00083 -0.09821 0.00249 c -0.03268 0.00158 -0.06536 0.00399 -0.09795 0.00715 c -0.0326 0.00324 -0.06502 0.00724 -0.09745 0.01214 c -0.03235 0.00474 -0.06461 0.01031 -0.09671 0.01671 c -0.03218 0.0064 -0.06411 0.01356 -0.09587 0.02154 c -0.03176 0.0079 -0.06328 0.01663 -0.09462 0.02619 c -0.03135 0.00948 -0.06245 0.01979 -0.09321 0.03068 c -0.03085 0.01106 -0.06136 0.02287 -0.09163 0.03551 c -0.03027 0.01248 -0.0602 0.0257 -0.0898 0.03966 c -0.0296 0.01405 -0.05879 0.02877 -0.08773 0.04415 c -0.02885 0.01547 -0.05737 0.0316 -0.08539 0.04848 c -0.02811 0.0168 -0.05579 0.03426 -0.08299 0.05247 c -0.02719 0.01821 -0.05397 0.037 -0.08032 0.05655 c -0.02627 0.01954 -0.05205 0.03974 -0.07741 0.06045 c -0.02528 0.02079 -0.05006 0.04216 -0.07434 0.06419 c -0.02428 0.02195 -0.04798 0.04449 -0.0711 0.06777 c -0.0232 0.02312 -0.04574 0.04681 -0.06777 0.07101 c -0.02195 0.02428 -0.04332 0.04906 -0.06411 0.07434 c -0.02079 0.02528 -0.04091 0.05114 -0.06037 0.07741 c -0.01954 0.02627 -0.03841 0.05305 -0.05663 0.08032 c -0.01813 0.02728 -0.03567 0.05496 -0.05247 0.08307 c -0.01688 0.02794 -0.03301 0.05638 -0.0484 0.08531 c -0.01547 0.02894 -0.03018 0.05821 -0.04424 0.08773 c -0.01397 0.0296 -0.02719 0.05954 -0.03974 0.08972 c -0.01256 0.03035 -0.02428 0.06087 -0.03534 0.0918 c -0.01106 0.03077 -0.02129 0.06178 -0.03085 0.09313 c -0.00948 0.03135 -0.01821 0.06286 -0.02611 0.09462 c -0.00798 0.03185 -0.01514 0.06378 -0.02154 0.09587 c -0.0064 0.0321 -0.01197 0.06436 -0.0168 0.09679 c -0.00482 0.03235 -0.00881 0.06486 -0.01206 0.09745 c -0.00316 0.0326 -0.00557 0.06519 -0.00724 0.09787 c -0.00158 0.03268 -0.00241 0.06544 -0.00241 0.09821 c 0 0.03276 0.00083 0.06544 0.00241 0.09812 c 0.00167 0.03268 0.00407 0.06536 0.00724 0.09795 c 0.00324 0.0326 0.00724 0.06502 0.01206 0.09745 c 0.00482 0.03235 0.01039 0.06461 0.0168 0.09671 c 0.0064 0.03218 0.01356 0.06411 0.02154 0.09596 c 0.0079 0.03168 0.01663 0.0632 0.02611 0.09454 c 0.00956 0.03135 0.01979 0.06245 0.03085 0.09321 c 0.01106 0.03085 0.02278 0.06145 0.03534 0.09172 c 0.01256 0.03027 0.02578 0.06012 0.03974 0.0898 c 0.01405 0.02952 0.02877 0.05879 0.04424 0.08773 c 0.01538 0.02885 0.03151 0.05729 0.0484 0.08531 c 0.0168 0.02811 0.03434 0.05579 0.05247 0.08307 c 0.01821 0.02719 0.03708 0.05397 0.05663 0.08024 c 0.01946 0.02633 0.03958 0.05216 0.06037 0.0775 c 0.02079 0.02528 0.04216 0.04998 0.06411 0.07434 c 0.02204 0.0242 0.04457 0.04781 0.06777 0.07101 c 0.02312 0.0232 0.04681 0.04582 0.0711 0.06769 c 0.02428 0.02204 0.04906 0.04341 0.07434 0.06419 c 0.02536 0.02079 0.05114 0.04091 0.07741 0.06045 c 0.02636 0.01954 0.05313 0.03841 0.08032 0.05663 c 0.02719 0.01804 0.05488 0.03559 0.08299 0.05239 c 0.02802 0.01688 0.05655 0.03301 0.08539 0.04848 c 0.02894 0.01547 0.05813 0.03018 0.08773 0.04415 c 0.0296 0.01405 0.05954 0.02728 0.0898 0.03974 c 0.03027 0.01256 0.06079 0.02437 0.09163 0.03542 c 0.03082 0.01098 0.06189 0.02123 0.09321 0.03077 c 0.03135 0.00948 0.06286 0.01821 0.09462 0.02611 c 0.03176 0.00804 0.06373 0.01525 0.09587 0.02162 c 0.0321 0.0064 0.06436 0.01197 0.09671 0.01671 c 0.03243 0.00482 0.06486 0.00889 0.09745 0.01214 c 0.0326 0.00316 0.06527 0.00549 0.09795 0.00715 c 0.03268 0.00158 0.06544 0.00241 0.09821 0.00241 c 0.03276 0 0.06544 -0.00083 0.09812 -0.00241 c 0.03276 -0.00167 0.06536 -0.00399 0.09795 -0.00715 z M 268.99432 180.01051 c 0.0326 -0.00324 0.06511 -0.00732 0.09745 -0.01222 c 0.03243 -0.00474 0.0647 -0.01031 0.09679 -0.01671 c 0.0321 -0.00632 0.06403 -0.01356 0.09579 -0.02154 c 0.03176 -0.0079 0.06337 -0.01663 0.09462 -0.02619 c 0.03135 -0.00948 0.06245 -0.0197 0.09329 -0.03068 c 0.03077 -0.01106 0.06136 -0.02287 0.09163 -0.03542 c 0.03018 -0.01256 0.06012 -0.02578 0.08972 -0.03974 c 0.0296 -0.01405 0.05887 -0.02877 0.08773 -0.04415 c 0.02894 -0.01547 0.05737 -0.0316 0.08548 -0.04848 c 0.02802 -0.01688 0.05571 -0.03434 0.08299 -0.05247 c 0.02722 -0.01818 0.05397 -0.03703 0.08024 -0.05655 c 0.02627 -0.01954 0.05214 -0.03966 0.07741 -0.06045 c 0.02536 -0.02079 0.05014 -0.04216 0.07434 -0.06419 c 0.02428 -0.02187 0.04798 -0.04449 0.07118 -0.06777 c 0.02312 -0.02312 0.04574 -0.04681 0.06769 -0.07101 c 0.02195 -0.02428 0.04341 -0.04906 0.06411 -0.07426 c 0.02079 -0.02536 0.04091 -0.05122 0.06045 -0.0775 c 0.01954 -0.02627 0.03833 -0.05305 0.05655 -0.08032 c 0.01821 -0.02728 0.03567 -0.05488 0.05255 -0.08299 c 0.0168 -0.02802 0.03293 -0.05646 0.0484 -0.08531 c 0.01547 -0.02902 0.03018 -0.05821 0.04415 -0.08781 c 0.01397 -0.0296 0.02728 -0.05954 0.03983 -0.08972 c 0.01248 -0.03027 0.02428 -0.06087 0.03534 -0.09172 c 0.01098 -0.03077 0.02129 -0.06187 0.03077 -0.09321 c 0.00948 -0.03135 0.01821 -0.06286 0.02619 -0.09462 c 0.00798 -0.03176 0.01514 -0.06378 0.02154 -0.09587 c 0.0064 -0.0321 0.01197 -0.06436 0.0168 -0.09671 c 0.00474 -0.03243 0.00881 -0.06494 0.01197 -0.09754 c 0.00324 -0.03252 0.00566 -0.06519 0.00724 -0.09787 c 0.00158 -0.03268 0.00241 -0.06536 0.00241 -0.09821 c 0 -0.03276 -0.00083 -0.06544 -0.00241 -0.09812 c -0.00158 -0.03268 -0.00399 -0.06536 -0.00724 -0.09795 c -0.00316 -0.03252 -0.00724 -0.06502 -0.01197 -0.09745 c -0.00482 -0.03235 -0.01039 -0.06461 -0.0168 -0.09671 c -0.0064 -0.0321 -0.01356 -0.06411 -0.02154 -0.09596 c -0.00798 -0.03168 -0.01671 -0.0632 -0.02619 -0.09454 c -0.00948 -0.03135 -0.01979 -0.06245 -0.03077 -0.09321 c -0.01106 -0.03085 -0.02287 -0.06145 -0.03534 -0.09172 c -0.01256 -0.03018 -0.02586 -0.06012 -0.03983 -0.0898 c -0.01397 -0.02952 -0.02869 -0.0587 -0.04415 -0.08773 c -0.01547 -0.02885 -0.0316 -0.05729 -0.0484 -0.08531 c -0.01688 -0.02811 -0.03434 -0.05579 -0.05255 -0.08299 c -0.01821 -0.02728 -0.037 -0.05405 -0.05655 -0.08032 c -0.01954 -0.02627 -0.03966 -0.05214 -0.06045 -0.0775 c -0.02071 -0.02519 -0.04216 -0.04998 -0.06411 -0.07434 c -0.02195 -0.0242 -0.04457 -0.04781 -0.06769 -0.07101 c -0.0232 -0.0232 -0.0469 -0.04582 -0.07118 -0.06769 c -0.0242 -0.02204 -0.04898 -0.04341 -0.07434 -0.06419 c -0.02528 -0.02079 -0.05114 -0.04091 -0.07741 -0.06045 c -0.02627 -0.01954 -0.05305 -0.03841 -0.08024 -0.05663 c -0.02728 -0.01804 -0.05496 -0.03559 -0.08299 -0.05239 c -0.02811 -0.01688 -0.05655 -0.03301 -0.08548 -0.04848 c -0.02885 -0.01547 -0.05813 -0.03018 -0.08773 -0.04415 c -0.0296 -0.01397 -0.05954 -0.02728 -0.08972 -0.03974 c -0.03027 -0.01256 -0.06087 -0.02437 -0.09163 -0.03542 c -0.03085 -0.01098 -0.06195 -0.0212 -0.09329 -0.03077 c -0.03127 -0.00948 -0.06286 -0.01821 -0.09462 -0.02611 c -0.03176 -0.00798 -0.06369 -0.01519 -0.09579 -0.02162 c -0.0321 -0.00632 -0.06436 -0.01189 -0.09679 -0.01671 c -0.03235 -0.00482 -0.06486 -0.00889 -0.09745 -0.01214 c -0.0326 -0.00316 -0.06519 -0.00549 -0.09795 -0.00715 c -0.03268 -0.00158 -0.06536 -0.00241 -0.09812 -0.00241 c -0.03276 0 -0.06552 0.00083 -0.09821 0.00241 c -0.03268 0.00167 -0.06536 0.00399 -0.09795 0.00715 c -0.0326 0.00324 -0.06502 0.00732 -0.09745 0.01214 c -0.03235 0.00482 -0.06461 0.01039 -0.09671 0.01671 c -0.03218 0.0064 -0.06411 0.01364 -0.09587 0.02162 c -0.03176 0.0079 -0.06328 0.01663 -0.09462 0.02611 c -0.03135 0.00956 -0.06245 0.01979 -0.09321 0.03077 c -0.03085 0.01106 -0.06136 0.02287 -0.09163 0.03542 c -0.03027 0.01248 -0.0602 0.02578 -0.0898 0.03974 c -0.0296 0.01397 -0.05879 0.02869 -0.08773 0.04415 c -0.02885 0.01547 -0.05729 0.0316 -0.08539 0.04848 c -0.02811 0.0168 -0.05579 0.03434 -0.08299 0.05239 c -0.02722 0.01824 -0.054 0.03712 -0.08032 0.05663 c -0.02627 0.01954 -0.05205 0.03966 -0.07741 0.06045 c -0.02528 0.02079 -0.05006 0.04219 -0.07434 0.06419 c -0.02428 0.02187 -0.04798 0.04449 -0.0711 0.06769 c -0.0232 0.0232 -0.04574 0.04681 -0.06769 0.07101 c -0.02204 0.02437 -0.04341 0.04914 -0.06419 0.07434 c -0.02079 0.02536 -0.04091 0.05122 -0.06037 0.0775 c -0.01954 0.02627 -0.03841 0.05305 -0.05663 0.08032 c -0.01813 0.02719 -0.03567 0.05488 -0.05247 0.08299 c -0.01688 0.02802 -0.03301 0.05646 -0.0484 0.08531 c -0.01547 0.02899 -0.03018 0.05824 -0.04415 0.08773 c -0.01405 0.02969 -0.02728 0.05962 -0.03983 0.0898 c -0.01256 0.03027 -0.02428 0.06087 -0.03534 0.09172 c -0.01106 0.03077 -0.02129 0.06187 -0.03085 0.09321 c -0.00948 0.03135 -0.01821 0.06286 -0.02611 0.09454 c -0.00798 0.03185 -0.01514 0.06386 -0.02154 0.09596 c -0.0064 0.0321 -0.01197 0.06436 -0.0168 0.09671 c -0.00482 0.03243 -0.00881 0.06494 -0.01206 0.09745 c -0.00316 0.0326 -0.00557 0.06527 -0.00724 0.09795 c -0.00158 0.03268 -0.00241 0.06536 -0.00241 0.09812 c 0 0.03284 0.00083 0.06552 0.00241 0.09821 c 0.00167 0.03268 0.00407 0.06536 0.00724 0.09787 c 0.00324 0.0326 0.00724 0.06511 0.01206 0.09754 c 0.00482 0.03235 0.01039 0.06461 0.0168 0.09671 c 0.0064 0.0321 0.01356 0.06411 0.02154 0.09587 c 0.0079 0.03176 0.01663 0.06328 0.02611 0.09462 c 0.00956 0.03135 0.01979 0.06236 0.03085 0.09321 c 0.01106 0.03085 0.02278 0.06145 0.03534 0.09172 c 0.01256 0.03018 0.02578 0.06012 0.03983 0.08972 c 0.01397 0.0296 0.02869 0.05879 0.04415 0.08781 c 0.01538 0.02885 0.03151 0.05729 0.0484 0.08531 c 0.0168 0.02811 0.03434 0.05571 0.05247 0.08299 c 0.01821 0.02728 0.03708 0.05405 0.05663 0.08032 c 0.01946 0.02627 0.03958 0.05214 0.06037 0.0775 c 0.02079 0.02519 0.04216 0.04998 0.06419 0.07426 c 0.02195 0.0242 0.04449 0.04789 0.06769 0.07101 c 0.02312 0.02328 0.04681 0.0459 0.0711 0.06777 c 0.02428 0.022 0.04906 0.04341 0.07434 0.06419 c 0.02536 0.02079 0.05114 0.04091 0.07741 0.06045 c 0.02636 0.01954 0.05313 0.03833 0.08032 0.05655 c 0.02719 0.01813 0.05488 0.03559 0.08299 0.05247 c 0.02802 0.01688 0.05655 0.03301 0.08539 0.04848 c 0.02894 0.01538 0.05813 0.0301 0.08773 0.04415 c 0.0296 0.01397 0.05954 0.02719 0.0898 0.03974 c 0.03027 0.01256 0.06079 0.02437 0.09163 0.03542 c 0.03077 0.01098 0.06187 0.0212 0.09321 0.03068 c 0.03135 0.00956 0.06286 0.01829 0.09462 0.02619 c 0.03176 0.00798 0.06369 0.01522 0.09587 0.02154 c 0.0321 0.0064 0.06436 0.01197 0.09671 0.01671 c 0.03243 0.0049 0.06486 0.00898 0.09745 0.01222 c 0.0326 0.00308 0.06527 0.00549 0.09795 0.00707 c 0.03268 0.00167 0.06544 0.00249 0.09821 0.00249 c 0.03276 0 0.06544 -0.00083 0.09812 -0.00249 c 0.03276 -0.00158 0.06536 -0.00399 0.09795 -0.00707 z M 273.62457 208.53862 c -8.23148 -4.59008 -12.65917 -11.76587 -13.67205 -21.18976 c 17.70659 0 35.28065 0 52.96587 -0.00424 c -0.70945 7.85963 -4.05583 14.27465 -10.29141 19.04426 c -8.50921 6.50907 -19.65552 7.35963 -29.00241 2.14974 z M 282.71934 191.84498 c 1.3035 1.83775 3.14132 2.56433 5.32947 2.5857 c 0.46158 -0.03426 0.92748 -0.04707 1.38906 -0.10685 c 1.68815 -0.23083 3.32933 -0.61549 4.70974 -1.70105 c 0.6796 -0.53425 1.12829 -1.21378 1.15398 -2.11123 c 0.02561 -0.8292 -0.31199 -1.34199 -1.0172 -1.57282 c -0.75643 -0.24364 -1.65822 0.01713 -2.02151 0.66671 c -0.32911 0.58556 -0.82063 0.90611 -1.42747 1.0685 c -0.5898 0.15807 -1.1924 0.29486 -1.79501 0.3889 c -1.49158 0.23075 -2.81653 0.04698 -3.81228 -1.3035 c -0.50432 -0.68384 -1.6455 -0.62406 -2.34639 -0.03426 c -0.67096 0.55986 -0.73082 1.32062 -0.1624 2.11988 z M 331.57247 197.22594 l -0.00057 0.19837 l -0.01147 0.62838 c -0.00038 0.01147 -0.00076 0.02293 -0.00114 0.0344 l -0.0258 0.60659 c -0.00038 0.01185 -0.00096 0.0237 -0.00172 0.03555 l -0.04071 0.60544 c -0.00076 0.01261 -0.00172 0.02504 -0.00287 0.03726 l -0.05561 0.6043 c -0.00114 0.01261 -0.00249 0.02522 -0.00402 0.03784 l -0.07167 0.60315 c -0.00153 0.013 -0.00325 0.02599 -0.00516 0.03899 l -0.08772 0.60086 c -0.00191 0.01338 -0.00402 0.02675 -0.00631 0.04014 l -0.10492 0.59799 c -0.00229 0.01376 -0.00497 0.02752 -0.00802 0.04128 l -0.12212 0.59455 c -0.00267 0.01414 -0.00573 0.02828 -0.00917 0.04243 l -0.1399 0.59111 c -0.00344 0.01453 -0.00707 0.02886 -0.0109 0.043 l -0.15767 0.58652 c -0.00382 0.01453 -0.00802 0.02905 -0.01261 0.04357 l -0.17602 0.58136 c -0.00459 0.01491 -0.00937 0.02963 -0.01433 0.04415 l -0.19436 0.57506 c -0.00535 0.01529 -0.0107 0.03039 -0.01606 0.0453 l -0.21385 0.56818 c -0.00535 0.01491 -0.01128 0.02981 -0.01777 0.04472 l -0.2322 0.5613 c -0.00612 0.01491 -0.01261 0.02981 -0.01949 0.04472 l -0.25112 0.55269 c -0.0065 0.01529 -0.01357 0.03039 -0.02121 0.0453 l -0.26947 0.54353 c -0.00726 0.01491 -0.01491 0.02963 -0.02293 0.04415 l -0.28839 0.53435 c -0.00802 0.01491 -0.01624 0.02943 -0.02465 0.04357 l -0.30616 0.52403 c -0.00841 0.01453 -0.01701 0.02886 -0.0258 0.043 l -0.32451 0.51314 c -0.00879 0.01414 -0.01796 0.0281 -0.02752 0.04185 l -0.34114 0.50167 c -0.00955 0.01376 -0.01911 0.02733 -0.02867 0.04071 l -0.35833 0.48963 c -0.00994 0.01338 -0.01988 0.02637 -0.02981 0.03899 l -0.37496 0.47759 c -0.00994 0.01261 -0.02006 0.02504 -0.03039 0.03726 l -0.39044 0.46498 c -0.00994 0.01223 -0.02026 0.02427 -0.03096 0.03612 l -0.40535 0.45179 c -0.01032 0.01147 -0.02083 0.02274 -0.03153 0.03383 l -0.41911 0.43918 c -0.0107 0.0107 -0.02141 0.02141 -0.03211 0.03211 l -0.43287 0.42542 c -0.0107 0.01032 -0.02141 0.02045 -0.03211 0.03039 l -0.44548 0.41223 c -0.0107 0.00994 -0.02141 0.01949 -0.03211 0.02867 l -0.45809 0.39904 c -0.01032 0.00917 -0.02083 0.01816 -0.03153 0.02695 l -0.46899 0.38528 c -0.0107 0.00879 -0.02121 0.0172 -0.03153 0.02522 l -0.47988 0.37267 c -0.01032 0.00765 -0.02064 0.01548 -0.03096 0.02351 l -0.48963 0.35891 c -0.00994 0.00765 -0.02006 0.0151 -0.03039 0.02236 l -0.4988 0.34629 c -0.00994 0.00688 -0.01988 0.01357 -0.02981 0.02006 l -0.5074 0.33425 c -0.00955 0.0065 -0.0193 0.0128 -0.02924 0.01892 l -0.51486 0.32164 c -0.00955 0.00573 -0.0193 0.01147 -0.02924 0.0172 l -0.52231 0.3096 l -3.75421 2.16779 l -0.52575 0.30329 l -0.52575 0.30387 l -0.52575 0.30329 l -4.73118 2.73138 l -3.67968 2.12479 l -1.57725 0.91046 l -0.52575 0.30387 l -1.0515 0.60659 l -0.52575 0.30387 l -0.52575 0.30329 l -0.52575 0.30387 l -4.73118 2.73138 l -3.1545 1.82092 l -4.73118 2.73195 l -2.103 1.21376 l -1.57725 0.91104 l -0.17143 0.09804 l -0.55041 0.30444 c -0.00994 0.00573 -0.02006 0.01128 -0.03039 0.01663 l -0.53779 0.28093 c -0.0107 0.00535 -0.02141 0.0107 -0.03211 0.01606 l -0.54467 0.26775 c -0.01108 0.00535 -0.02217 0.0107 -0.03326 0.01606 l -0.55098 0.25399 c -0.01185 0.00535 -0.02351 0.01051 -0.03497 0.01548 l -0.55786 0.23965 c -0.01223 0.00497 -0.02446 0.00994 -0.03669 0.01491 l -0.56411 0.22418 c -0.01269 0.00497 -0.02544 0.00975 -0.03824 0.01433 l -0.57019 0.20869 c -0.01323 0.00459 -0.0265 0.00917 -0.03984 0.01376 l -0.57597 0.19149 c -0.01376 0.00459 -0.02756 0.00898 -0.0414 0.01318 l -0.58142 0.17429 c -0.0143 0.0042 -0.02865 0.00822 -0.04306 0.01204 l -0.58647 0.15652 c -0.01476 0.0042 -0.02954 0.00802 -0.04438 0.01147 l -0.59111 0.1376 c -0.01521 0.00382 -0.03048 0.00726 -0.04581 0.01032 l -0.59524 0.11868 c -0.0156 0.00306 -0.03125 0.00592 -0.04696 0.0086 l -0.59879 0.09919 c -0.01597 0.00267 -0.03197 0.00516 -0.04799 0.00745 l -0.60183 0.07912 c -0.01624 0.00229 -0.03253 0.0042 -0.04885 0.00573 l -0.60412 0.05905 c -0.01647 0.00153 -0.03297 0.00287 -0.04948 0.00402 l -0.60579 0.03841 c -0.01663 0.00076 -0.03327 0.00153 -0.04994 0.00229 l -0.60676 0.0172 c -0.0167 0.00076 -0.03342 0.00096 -0.05017 0.00057 l -0.60699 -0.00287 c -0.01666 -0.00038 -0.03335 -0.00076 -0.05005 -0.00114 l -0.60654 -0.02465 c -0.01663 -0.00038 -0.03324 -0.00134 -0.04982 -0.00287 l -0.60533 -0.04472 c -0.01647 -0.00114 -0.03291 -0.00267 -0.0493 -0.00459 l -0.6035 -0.06536 c -0.0162 -0.00191 -0.03239 -0.00402 -0.04856 -0.00631 l -0.60092 -0.08543 c -0.01594 -0.00229 -0.03184 -0.00497 -0.0477 -0.00802 l -0.59776 -0.1055 c -0.0156 -0.00267 -0.03113 -0.00554 -0.04661 -0.0086 l -0.59398 -0.12556 c -0.01517 -0.00306 -0.03027 -0.0065 -0.0453 -0.01032 l -0.58973 -0.1439 c -0.01471 -0.00344 -0.02938 -0.00726 -0.04398 -0.01147 l -0.58492 -0.16225 c -0.01422 -0.00382 -0.02838 -0.00784 -0.04249 -0.01204 l -0.57976 -0.18003 c -0.01372 -0.0042 -0.02737 -0.0086 -0.04094 -0.01318 l -0.57414 -0.19723 c -0.01318 -0.00459 -0.0263 -0.00937 -0.03933 -0.01433 l -0.56829 -0.21328 c -0.01261 -0.00459 -0.02517 -0.00955 -0.03767 -0.01491 l -0.56215 -0.22876 c -0.01208 -0.00497 -0.0241 -0.01013 -0.03606 -0.01548 l -0.55573 -0.24424 c -0.01154 -0.00497 -0.02303 -0.01013 -0.03445 -0.01548 l -0.54926 -0.25858 c -0.01097 -0.00497 -0.0219 -0.01032 -0.0328 -0.01606 l -0.54255 -0.27176 c -0.01051 -0.00535 -0.02093 -0.0107 -0.03125 -0.01606 l -0.5359 -0.28552 c -0.00998 -0.00535 -0.01988 -0.0107 -0.0297 -0.01606 l -0.52907 -0.29756 l -1.65144 -0.95346 l -0.52575 -0.30329 l -4.73135 -2.73195 l -1.57714 -0.91046 l -0.52569 -0.30329 l -0.52569 -0.30387 l -0.52575 -0.30329 l -1.57708 -0.91046 l -4.20566 -2.42808 l -2.62858 -1.51762 l -1.05138 -0.60716 l -4.73141 -2.73195 l -1.05138 -0.60659 l -2.10283 -1.21433 l -0.52575 -0.30329 l -0.52569 -0.30387 l -0.52569 -0.30329 l -4.73137 -2.73195 l -0.52571 -0.30329 l -0.5257 -0.30329 l -0.1712 -0.09976 l -0.53885 -0.32451 c -0.00978 -0.00612 -0.01949 -0.01223 -0.02913 -0.01835 l -0.51244 -0.32508 c -0.01001 -0.0065 -0.01995 -0.013 -0.02981 -0.01949 l -0.50434 -0.3377 c -0.01022 -0.00688 -0.02034 -0.01395 -0.03039 -0.02121 l -0.49562 -0.35031 c -0.01042 -0.00726 -0.02073 -0.01471 -0.03095 -0.02236 l -0.48624 -0.36349 c -0.01057 -0.00802 -0.02103 -0.01606 -0.03138 -0.02408 l -0.47619 -0.37668 c -0.0107 -0.00841 -0.02128 -0.01701 -0.03174 -0.0258 l -0.46544 -0.3893 c -0.01078 -0.00917 -0.02144 -0.01835 -0.03196 -0.02752 l -0.45395 -0.40306 c -0.01083 -0.00955 -0.02153 -0.0193 -0.03207 -0.02924 l -0.44173 -0.41681 c -0.01084 -0.00994 -0.02152 -0.02026 -0.03204 -0.03096 l -0.42876 -0.42943 c -0.01078 -0.01108 -0.02138 -0.02217 -0.03182 -0.03326 l -0.41504 -0.44262 c -0.01067 -0.01147 -0.02115 -0.02312 -0.03145 -0.03497 l -0.4006 -0.4558 c -0.0105 -0.01185 -0.02079 -0.02408 -0.0309 -0.03669 l -0.38545 -0.46842 c -0.01027 -0.01261 -0.02034 -0.02542 -0.03019 -0.03841 l -0.36962 -0.4816 c -0.00998 -0.013 -0.01973 -0.02599 -0.02926 -0.03899 l -0.35316 -0.49421 c -0.00963 -0.01338 -0.01904 -0.02695 -0.02821 -0.04071 l -0.33613 -0.50511 c -0.00922 -0.01414 -0.01821 -0.02828 -0.02695 -0.04243 l -0.31859 -0.51658 c -0.00877 -0.01414 -0.0173 -0.02848 -0.02558 -0.043 l -0.30063 -0.52747 c -0.00827 -0.01453 -0.0163 -0.02924 -0.02407 -0.04415 l -0.28231 -0.53722 c -0.00774 -0.01453 -0.01522 -0.02943 -0.02245 -0.04472 l -0.26375 -0.54639 c -0.00717 -0.01491 -0.01409 -0.03 -0.02076 -0.0453 l -0.24501 -0.55499 c -0.00659 -0.01491 -0.01293 -0.03 -0.01901 -0.0453 l -0.22621 -0.56302 c -0.006 -0.01491 -0.01175 -0.03 -0.01724 -0.0453 l -0.20743 -0.57047 c -0.0054 -0.01491 -0.01057 -0.02981 -0.01548 -0.04472 l -0.18875 -0.57735 c -0.00482 -0.01453 -0.00939 -0.02924 -0.0137 -0.04415 l -0.17022 -0.58251 c -0.00428 -0.01453 -0.00831 -0.02924 -0.0121 -0.04415 l -0.15194 -0.58767 c -0.0037 -0.01414 -0.00719 -0.02848 -0.01044 -0.043 l -0.13405 -0.59169 c -0.00317 -0.01414 -0.00614 -0.02828 -0.00889 -0.04243 l -0.1165 -0.5957 c -0.00267 -0.01376 -0.00516 -0.02752 -0.00745 -0.04128 l -0.0993 -0.59856 c -0.00222 -0.01338 -0.00425 -0.02675 -0.00608 -0.04014 l -0.08268 -0.60143 c -0.00176 -0.013 -0.00336 -0.02599 -0.00482 -0.03899 l -0.06645 -0.60315 c -0.00137 -0.01261 -0.0026 -0.02522 -0.00367 -0.03784 l -0.05074 -0.60487 c -0.00103 -0.01185 -0.00191 -0.02389 -0.00264 -0.03612 l -0.0356 -0.60602 c -0.00069 -0.01185 -0.00122 -0.02351 -0.0016 -0.03497 l -0.02098 -0.60716 c -0.00042 -0.01108 -0.00069 -0.02236 -0.0008 -0.03383 l -0.00688 -0.60659 l -0.00006 -0.69317 v -39.45706 l 0.00069 -0.1982 l 0.01152 -0.62884 c 0.00023 -0.01143 0.00057 -0.02284 0.00103 -0.03423 l 0.02557 -0.60647 c 0.0005 -0.01185 0.00114 -0.0237 0.00195 -0.03555 l 0.04036 -0.60567 c 0.00084 -0.01227 0.00182 -0.02454 0.00292 -0.03681 l 0.05573 -0.60447 c 0.00114 -0.01269 0.00249 -0.02536 0.00402 -0.03801 l 0.07155 -0.60281 c 0.00157 -0.01307 0.00331 -0.02614 0.00522 -0.03922 l 0.08789 -0.60063 c 0.00195 -0.01349 0.00411 -0.02695 0.00648 -0.04036 l 0.10475 -0.59793 c 0.00241 -0.01387 0.00503 -0.02769 0.00786 -0.04145 l 0.12201 -0.59461 c 0.00294 -0.01422 0.00608 -0.02838 0.0094 -0.04249 l 0.13967 -0.59071 c 0.00344 -0.01449 0.00709 -0.02892 0.01095 -0.04329 l 0.15778 -0.58618 c 0.00393 -0.01471 0.00812 -0.0294 0.01256 -0.04403 l 0.17607 -0.58091 c 0.00455 -0.01491 0.00932 -0.02976 0.01433 -0.04455 l 0.19463 -0.57494 c 0.0051 -0.0151 0.01045 -0.03008 0.01605 -0.04495 l 0.21338 -0.56829 c 0.00569 -0.01514 0.01162 -0.03018 0.01781 -0.04512 l 0.23219 -0.56084 c 0.00627 -0.01514 0.01279 -0.03018 0.01957 -0.04512 l 0.25098 -0.55269 c 0.00684 -0.01506 0.01394 -0.03 0.0213 -0.04484 l 0.26967 -0.54381 c 0.0074 -0.01494 0.01505 -0.02974 0.02297 -0.04438 l 0.28816 -0.5343 c 0.00794 -0.01468 0.01612 -0.02924 0.02456 -0.04369 l 0.30638 -0.52403 c 0.00843 -0.01441 0.01711 -0.02867 0.02603 -0.04277 l 0.32421 -0.51319 c 0.00889 -0.01407 0.01801 -0.02798 0.02737 -0.04174 l 0.3416 -0.50173 c 0.00929 -0.01364 0.01881 -0.02714 0.02856 -0.04048 l 0.35845 -0.48986 c 0.00964 -0.01318 0.01951 -0.0262 0.02958 -0.03904 l 0.37472 -0.47753 c 0.00993 -0.01265 0.02008 -0.02515 0.03043 -0.03749 l 0.39034 -0.46486 c 0.01017 -0.01211 0.02054 -0.02406 0.0311 -0.03583 l 0.40527 -0.4519 c 0.01035 -0.01154 0.02089 -0.02291 0.0316 -0.03411 l 0.41948 -0.43872 c 0.01047 -0.01097 0.02111 -0.02175 0.03191 -0.03234 l 0.43296 -0.42547 c 0.01053 -0.01036 0.02121 -0.02054 0.03206 -0.03056 l 0.4457 -0.41212 c 0.01054 -0.00975 0.02123 -0.01932 0.03205 -0.02872 l 0.45768 -0.39876 c 0.0105 -0.00914 0.02115 -0.01814 0.03191 -0.027 l 0.46893 -0.38545 c 0.01042 -0.00856 0.02097 -0.01699 0.03163 -0.02529 l 0.47947 -0.37221 c 0.01031 -0.00802 0.02073 -0.0159 0.03125 -0.02362 l 0.4893 -0.35925 c 0.01016 -0.00745 0.02042 -0.01478 0.03077 -0.02196 l 0.49846 -0.34641 c 0.00999 -0.00696 0.02006 -0.01378 0.03022 -0.02047 l 0.50698 -0.33386 c 0.00979 -0.00642 0.01965 -0.01275 0.0296 -0.01898 l 0.51489 -0.32147 c 0.00957 -0.006 0.01921 -0.01187 0.02892 -0.0176 l 0.52222 -0.30943 l 2.70279 -1.56057 l 2.62852 -1.51762 l 2.62858 -1.51757 l 0.52569 -0.30352 l 1.05144 -0.60705 l 1.57708 -0.91058 l 0.52575 -0.30347 l 2.10283 -1.2141 l 2.62852 -1.51757 l 5.2571 -3.03519 l 0.52569 -0.30352 l 1.05138 -0.60704 l 0.52575 -0.30351 l 4.73135 -2.73166 l 1.05138 -0.60704 l 0.52575 -0.30352 l 0.52569 -0.30352 l 0.52569 -0.30352 l 0.52569 -0.30352 l 0.52575 -0.30352 l 2.62852 -1.51759 l 0.17189 -0.09842 l 0.55034 -0.30442 c 0.00998 -0.00553 0.02003 -0.01093 0.03016 -0.01622 l 0.53802 -0.2811 c 0.01051 -0.00549 0.02108 -0.01086 0.03171 -0.01609 l 0.54473 -0.26787 c 0.01105 -0.00543 0.02215 -0.01072 0.03331 -0.01587 l 0.55138 -0.25399 c 0.01158 -0.00533 0.02322 -0.01052 0.03491 -0.01555 l 0.5578 -0.23943 c 0.01211 -0.0052 0.02431 -0.01024 0.03658 -0.01511 l 0.56411 -0.22419 c 0.01269 -0.00503 0.02544 -0.0099 0.03824 -0.01458 l 0.57019 -0.20825 c 0.01318 -0.00483 0.02647 -0.00946 0.03984 -0.0139 l 0.57597 -0.19166 c 0.01372 -0.00457 0.02752 -0.00894 0.0414 -0.01311 l 0.58142 -0.17438 c 0.0143 -0.00428 0.02863 -0.00834 0.043 -0.01217 l 0.58647 -0.15648 c 0.01476 -0.00393 0.02956 -0.00764 0.04443 -0.01111 l 0.59111 -0.13797 c 0.01521 -0.00355 0.03046 -0.00685 0.04576 -0.00991 l 0.5953 -0.11891 c 0.0156 -0.00311 0.03123 -0.00597 0.0469 -0.00858 l 0.59885 -0.09934 c 0.01594 -0.00265 0.03194 -0.00503 0.04799 -0.00714 l 0.60177 -0.07935 c 0.01629 -0.00214 0.03257 -0.00401 0.04885 -0.0056 l 0.60418 -0.059 c 0.01647 -0.00161 0.03297 -0.00294 0.04948 -0.00398 l 0.60579 -0.03836 c 0.01663 -0.00106 0.03327 -0.00182 0.04994 -0.00231 l 0.60676 -0.01757 c 0.0167 -0.00048 0.0334 -0.00068 0.05011 -0.00059 l 0.60699 0.00332 c 0.0167 0.00009 0.0334 0.00047 0.05011 0.00114 l 0.60654 0.02419 c 0.01659 0.00066 0.03317 0.00161 0.04976 0.00284 l 0.60539 0.04495 c 0.01643 0.00122 0.03287 0.00272 0.0493 0.00451 l 0.60343 0.06549 c 0.01624 0.00176 0.03245 0.0038 0.04862 0.0061 l 0.60092 0.08574 c 0.01594 0.00228 0.03184 0.00481 0.0477 0.00761 l 0.5977 0.10561 c 0.0156 0.00275 0.03113 0.00576 0.04661 0.00902 l 0.59398 0.12501 c 0.01517 0.00319 0.03029 0.00663 0.04535 0.0103 l 0.58973 0.14391 c 0.01471 0.00359 0.02936 0.00742 0.04392 0.01146 l 0.58497 0.16224 c 0.01422 0.00395 0.02838 0.00811 0.04249 0.01248 l 0.5797 0.17994 c 0.01372 0.00425 0.02737 0.00871 0.04094 0.01337 l 0.57419 0.197 c 0.01318 0.00453 0.0263 0.00924 0.03933 0.01413 l 0.56823 0.21339 c 0.01265 0.00475 0.02522 0.00967 0.03772 0.01476 l 0.56222 0.22911 c 0.01185 0.00493 0.02389 0.01001 0.03612 0.01527 l 0.55557 0.24413 c 0.01147 0.00507 0.02293 0.01029 0.0344 0.01566 l 0.54926 0.25848 c 0.01108 0.00518 0.02198 0.01049 0.03268 0.01594 l 0.54295 0.27215 c 0.01032 0.00526 0.02064 0.01064 0.03096 0.01614 l 0.53607 0.28516 c 0.00994 0.0053 0.01988 0.01072 0.02981 0.01625 l 0.52919 0.29754 l 0.07396 0.04287 l 1.57725 0.91055 l 3.68025 2.12462 l 1.57668 0.91055 l 5.2575 3.03517 l 0.52575 0.30351 l 0.52575 0.30353 l 0.52518 0.30352 l 1.57725 0.91052 l 2.62875 1.51762 l 0.52575 0.30347 l 0.52575 0.30352 l 4.73118 2.73166 l 1.0515 0.60705 l 2.103 1.21404 l 4.73118 2.73166 l 2.103 1.2141 l 0.52575 0.30347 l 0.52518 0.30352 l 0.17143 0.09976 l 0.53894 0.3244 c 0.00994 0.00592 0.01969 0.01195 0.02924 0.01806 l 0.51256 0.32537 c 0.00994 0.00635 0.01988 0.01282 0.02981 0.01944 l 0.50396 0.33781 c 0.01032 0.00684 0.02045 0.01382 0.03039 0.02093 l 0.49594 0.35048 c 0.01032 0.00734 0.02064 0.01483 0.03096 0.02248 l 0.48619 0.36338 c 0.0107 0.00788 0.02121 0.0159 0.03153 0.02408 l 0.47587 0.37645 c 0.0107 0.00845 0.02141 0.01707 0.03211 0.02586 l 0.46498 0.38964 c 0.01108 0.00902 0.02179 0.01819 0.03211 0.02752 l 0.45408 0.403 c 0.0107 0.00963 0.02141 0.01942 0.03211 0.02936 l 0.44147 0.4163 c 0.01108 0.01024 0.02179 0.02062 0.03211 0.03113 l 0.42885 0.42972 c 0.0107 0.01078 0.02141 0.02175 0.03211 0.03291 l 0.41452 0.44296 c 0.0107 0.01135 0.02121 0.02289 0.03153 0.03463 l 0.40076 0.45603 c 0.0107 0.01197 0.02102 0.0241 0.03096 0.03641 l 0.38528 0.46893 c 0.01032 0.01246 0.02045 0.02511 0.03039 0.03795 l 0.3698 0.48149 c 0.00994 0.013 0.01969 0.02616 0.02924 0.0395 l 0.35318 0.4937 c 0.00955 0.01349 0.01892 0.02712 0.0281 0.04088 l 0.33598 0.50545 c 0.00917 0.01387 0.01816 0.0279 0.02695 0.04208 l 0.31878 0.51669 c 0.00879 0.01422 0.0172 0.02859 0.02522 0.04311 l 0.301 0.52736 c 0.00802 0.01449 0.01606 0.02913 0.02408 0.04392 l 0.28208 0.53739 c 0.00765 0.01471 0.0151 0.02956 0.02236 0.04455 l 0.26373 0.54668 c 0.00726 0.01487 0.01414 0.02985 0.02064 0.04495 l 0.24539 0.55539 c 0.0065 0.01494 0.0128 0.02999 0.01892 0.04512 l 0.22647 0.5633 c 0.00573 0.01494 0.01147 0.02999 0.0172 0.04512 l 0.20698 0.57047 c 0.00573 0.01487 0.0109 0.02981 0.01548 0.04484 l 0.1892 0.57695 c 0.00459 0.01471 0.00917 0.02951 0.01376 0.04438 l 0.16971 0.58262 c 0.00459 0.01456 0.0086 0.02918 0.01204 0.04386 l 0.15251 0.58767 c 0.00344 0.0143 0.00688 0.02865 0.01032 0.04306 l 0.13416 0.59203 c 0.00306 0.01399 0.00592 0.02803 0.0086 0.04214 l 0.11639 0.5957 c 0.00267 0.01368 0.00516 0.02741 0.00745 0.04117 l 0.09919 0.59879 c 0.00229 0.01334 0.00439 0.0267 0.00631 0.04007 l 0.08256 0.60137 c 0.00191 0.01292 0.00363 0.02586 0.00516 0.03881 l 0.06593 0.60338 c 0.00153 0.01254 0.00287 0.02509 0.00402 0.03767 l 0.05045 0.60487 c 0.00114 0.01211 0.0021 0.02425 0.00287 0.03641 l 0.03555 0.60596 c 0.00076 0.0117 0.00134 0.02339 0.00172 0.03509 l 0.02064 0.6067 c 0.00076 0.01128 0.00114 0.02257 0.00114 0.03388 l 0.00688 0.60699 z M 328.65878 157.10879 l -0.00631 -0.59002 l -0.02006 -0.57208 l -0.03326 -0.57024 l -0.04816 -0.56777 l -0.06192 -0.56531 l -0.0774 -0.56181 l -0.09231 -0.55843 l -0.10836 -0.55361 l -0.12441 -0.54977 l -0.14104 -0.54415 l -0.15709 -0.53865 l -0.17429 -0.53223 l -0.19092 -0.52523 l -0.20812 -0.51841 l -0.22532 -0.51015 l -0.24195 -0.50213 l -0.25915 -0.4929 l -0.27578 -0.48395 l -0.2924 -0.47392 l -0.30846 -0.46406 l -0.32451 -0.45339 l -0.33941 -0.44273 l -0.35547 -0.43184 l -0.36923 -0.42049 l -0.38299 -0.40908 l -0.39732 -0.39784 l -0.40936 -0.38597 l -0.42197 -0.37468 l -0.43344 -0.36281 l -0.44491 -0.35163 l -0.45523 -0.33999 l -0.4644 -0.32869 l -0.47472 -0.31775 l -0.48275 -0.30668 l -0.48619 -0.2932 l -0.16225 -0.09449 l -2.62875 -1.51762 l -0.52575 -0.30347 l -4.73118 -2.73166 l -2.62875 -1.51762 l -0.52575 -0.30347 l -4.73118 -2.73166 l -2.103 -1.2141 l -1.0515 -0.60699 l -2.103 -1.2141 l -0.52518 -0.30352 l -0.52575 -0.30352 l -0.52575 -0.30347 l -5.2575 -3.03519 l -1.57668 -0.91055 l -3.68025 -2.12462 l -1.57725 -0.91055 l -0.04587 -0.02654 l -0.51429 -0.28921 l -0.50511 -0.26898 l -0.51084 -0.2561 l -0.51537 -0.24262 l -0.52059 -0.22867 l -0.52523 -0.21406 l -0.52971 -0.19892 l -0.53401 -0.18322 l -0.53802 -0.167 l -0.54169 -0.15024 l -0.54507 -0.13301 l -0.54799 -0.11534 l -0.55063 -0.09728 l -0.55276 -0.07887 l -0.55447 -0.06018 l -0.55573 -0.04126 l -0.5566 -0.0222 l -0.55688 -0.00305 l -0.55671 0.01612 l -0.55602 0.03522 l -0.55493 0.05419 l -0.55338 0.07296 l -0.55132 0.09147 l -0.54891 0.10964 l -0.54599 0.12744 l -0.54284 0.14483 l -0.53922 0.16171 l -0.53533 0.17814 l -0.53108 0.19399 l -0.52672 0.20931 l -0.52202 0.22406 l -0.51721 0.23829 l -0.51222 0.25188 l -0.50717 0.26498 l -0.49702 0.27458 l -0.16283 0.09324 l -2.62852 1.51759 l -0.52575 0.30352 l -0.52569 0.30351 l -1.05138 0.60704 l -0.52575 0.30352 l -0.52569 0.30352 l -0.52569 0.30351 l -4.73135 2.73168 l -0.52575 0.30352 l -0.52569 0.30352 l -1.05138 0.60699 l -5.2571 3.03519 l -2.62852 1.51757 l -2.10283 1.2141 l -0.52575 0.30352 l -0.52569 0.30352 l -1.05138 0.60699 l -1.05144 0.60705 l -0.52569 0.30352 l -2.62852 1.51762 l -2.62858 1.51757 l -2.6743 1.54388 l -0.50764 0.30083 l -0.48563 0.30324 l -0.47711 0.31413 l -0.46787 0.3252 l -0.45836 0.33649 l -0.44794 0.34779 l -0.43717 0.35931 l -0.4257 0.37089 l -0.41363 0.38242 l -0.40093 0.394 l -0.38774 0.40552 l -0.37389 0.41693 l -0.35956 0.42823 l -0.34468 0.43924 l -0.32936 0.45013 l -0.31362 0.46067 l -0.29751 0.47088 l -0.28107 0.48074 l -0.2644 0.49021 l -0.24752 0.49915 l -0.23054 0.50769 l -0.2135 0.51572 l -0.19646 0.52322 l -0.17949 0.53017 l -0.16265 0.53659 l -0.14599 0.54249 l -0.12955 0.54782 l -0.1134 0.55264 l -0.09756 0.557 l -0.08208 0.56078 l -0.06697 0.56416 l -0.05226 0.56703 l -0.03796 0.5695 l -0.02411 0.57179 l -0.01073 0.56766 l -0.00068 0.18777 v 39.45706 l -0.00009 0.65991 l 0.00668 0.58996 l 0.01979 0.57219 l 0.03351 0.57047 l 0.04767 0.56761 l 0.06225 0.56531 l 0.07724 0.56187 l 0.0926 0.55843 l 0.10834 0.55384 l 0.1244 0.54926 l 0.14073 0.54467 l 0.15733 0.53837 l 0.17411 0.53206 l 0.1911 0.52575 l 0.20805 0.51772 l 0.22514 0.51084 l 0.2422 0.50167 l 0.25897 0.49307 l 0.27589 0.4839 l 0.29226 0.47415 l 0.3085 0.46383 l 0.32452 0.45351 l 0.33975 0.44262 l 0.35497 0.43172 l 0.36936 0.42083 l 0.38345 0.40879 l 0.39676 0.39789 l 0.40966 0.38585 l 0.42207 0.37496 l 0.43343 0.36292 l 0.44457 0.35145 l 0.45505 0.33999 l 0.46501 0.32852 l 0.47439 0.31821 l 0.4829 0.30616 l 0.4863 0.29355 l 0.16222 0.09403 l 0.52569 0.30387 l 0.52575 0.30329 l 4.73135 2.73195 l 1.05138 0.60659 l 0.52575 0.30387 l 2.10283 1.21376 l 1.05138 0.60716 l 4.73141 2.73195 l 1.05138 0.60659 l 2.62852 1.51762 l 4.20571 2.42808 l 1.57708 0.91104 l 0.52575 0.30329 l 0.52569 0.30329 l 0.52569 0.30387 l 1.57714 0.91046 l 4.73135 2.73138 l 0.52575 0.30387 l 1.62278 0.93683 l 0.51411 0.28896 l 0.50568 0.26947 l 0.51061 0.25628 l 0.5156 0.24252 l 0.5203 0.22819 l 0.52541 0.21443 l 0.52971 0.19895 l 0.53401 0.1829 l 0.53807 0.16741 l 0.54175 0.15021 l 0.54484 0.13301 l 0.54817 0.11524 l 0.55057 0.09747 l 0.55258 0.07854 l 0.5547 0.0602 l 0.55568 0.04128 l 0.55677 0.02236 l 0.5566 0.00287 l 0.55671 -0.01606 l 0.55608 -0.03497 l 0.55511 -0.05447 l 0.55338 -0.07281 l 0.55098 -0.09173 l 0.54914 -0.10951 l 0.54611 -0.12728 l 0.54255 -0.14505 l 0.53945 -0.16168 l 0.53515 -0.17831 l 0.53142 -0.19379 l 0.52626 -0.20927 l 0.52231 -0.22418 l 0.5168 -0.23793 l 0.51256 -0.25227 l 0.50683 -0.26488 l 0.49708 -0.27463 l 0.1634 -0.09346 l 1.57668 -0.91046 l 2.103 -1.21376 l 4.73118 -2.73195 l 3.1545 -1.82092 l 4.73118 -2.73195 l 1.0515 -0.60659 l 0.52575 -0.30387 l 1.0515 -0.60659 l 0.52575 -0.30387 l 1.57725 -0.91046 l 3.67968 -2.12479 l 4.73118 -2.73138 l 0.52575 -0.30387 l 1.0515 -0.60659 l 3.72612 -2.15116 l 0.5074 -0.301 l 0.48562 -0.30329 l 0.47702 -0.31362 l 0.46842 -0.32566 l 0.45809 -0.33598 l 0.44778 -0.34802 l 0.43689 -0.35948 l 0.42599 -0.37095 l 0.41395 -0.38242 l 0.40076 -0.39388 l 0.38757 -0.40535 l 0.37382 -0.41681 l 0.35948 -0.42828 l 0.34515 -0.43975 l 0.3291 -0.4495 l 0.31362 -0.46097 l 0.29756 -0.47071 l 0.28093 -0.48103 l 0.26431 -0.49021 l 0.24768 -0.4988 l 0.23048 -0.50798 l 0.21385 -0.51543 l 0.19608 -0.52345 l 0.17945 -0.53034 l 0.16283 -0.53664 l 0.1462 -0.54238 l 0.12958 -0.54811 l 0.11295 -0.55212 l 0.09804 -0.55728 l 0.08199 -0.56015 l 0.06708 -0.56473 l 0.05218 -0.56703 l 0.03784 -0.56932 l 0.02408 -0.57162 l 0.0109 -0.56761 l 0.00057 -0.18806 z" stroke-linecap="round"/>
</g>
</svg>